<svg xmlns="http://www.w3.org/2000/svg" xmlns:xlink="http://www.w3.org/1999/xlink" xmlns:lucid="lucid" width="791.86" height="883"><g transform="translate(-869.6358024691358 -38.5)" lucid:page-tab-id="0_0"><path d="M500 0h1500v1000H500z" fill="#fff"/><path d="M1060 46a6 6 0 0 1 6-6h588a6 6 0 0 1 6 6v868a6 6 0 0 1-6 6h-588a6 6 0 0 1-6-6z" stroke="#5e5e5e" stroke-width="3" fill-opacity="0"/><use xlink:href="#a" transform="matrix(1,0,0,1,1068,48) translate(194.62345679012347 17.77777777777778)"/><use xlink:href="#b" transform="matrix(1,0,0,1,1068,48) translate(303.141975308642 17.77777777777778)"/><path d="M920.25 681.28v-.2A19.75 19.75 0 0 1 940 661.33a19.75 19.75 0 0 1 19.75 19.75A19.75 19.75 0 0 1 940 700.83a19.75 19.75 0 0 1-19.75-19.75v-.2" stroke="#5e5e5e" stroke-width="3" fill="#fff"/><path d="M900 667.33a6 6 0 0 1 6-6h68a6 6 0 0 1 6 6v146a6 6 0 0 1-6 6h-68a6 6 0 0 1-6-6z" fill="none"/><path d="M940 700.83v55.3l40 63.2m-40-63.2l-40 63.2m0-98.75h80" stroke="#5e5e5e" stroke-width="3" fill="none"/><use xlink:href="#c" transform="matrix(1,0,0,1,820,819.3333333333335) translate(51.63580246913581 17.77777777777778)"/><path d="M920.25 400.6v-.18A19.75 19.75 0 0 1 940 380.67a19.75 19.75 0 0 1 19.75 19.75A19.75 19.75 0 0 1 940 420.17a19.75 19.75 0 0 1-19.75-19.75v-.2" stroke="#5e5e5e" stroke-width="3" fill="#fff"/><path d="M900 386.67a6 6 0 0 1 6-6h68a6 6 0 0 1 6 6v146a6 6 0 0 1-6 6h-68a6 6 0 0 1-6-6z" fill="none"/><path d="M940 420.17v55.3l40 63.2m-40-63.2l-40 63.2m0-98.75h80" stroke="#5e5e5e" stroke-width="3" fill="none"/><use xlink:href="#d" transform="matrix(1,0,0,1,820,538.6666666666667) translate(91.63580246913581 17.77777777777778)"/><path d="M920.25 119.95v-.2A19.75 19.75 0 0 1 940 100a19.75 19.75 0 0 1 19.75 19.75A19.75 19.75 0 0 1 940 139.5a19.75 19.75 0 0 1-19.75-19.75v-.2" stroke="#5e5e5e" stroke-width="3" fill="#fff"/><path d="M900 106a6 6 0 0 1 6-6h68a6 6 0 0 1 6 6v146a6 6 0 0 1-6 6h-68a6 6 0 0 1-6-6z" fill="none"/><path d="M940 139.5v55.3l40 63.2m-40-63.2L900 258m0-98.75h80" stroke="#5e5e5e" stroke-width="3" fill="none"/><use xlink:href="#e" transform="matrix(1,0,0,1,820,258) translate(81.75925925925927 17.77777777777778)"/><path d="M1580 140c0 22.1-49.25 40-110 40s-110-17.9-110-40 49.25-40 110-40 110 17.9 110 40z" stroke="#5e5e5e" stroke-width="3" fill="#fff"/><use xlink:href="#f" transform="matrix(1,0,0,1,1360,100) translate(52.355 44.4)"/><use xlink:href="#g" transform="matrix(1,0,0,1,1360,100) translate(134.805 44.4)"/><path d="M1580 480c0 22.1-49.25 40-110 40s-110-17.9-110-40 49.25-40 110-40 110 17.9 110 40z" stroke="#5e5e5e" stroke-width="3" fill="#fff"/><use xlink:href="#h" transform="matrix(1,0,0,1,1360,440) translate(48.654999999999994 44.4)"/><use xlink:href="#i" transform="matrix(1,0,0,1,1360,440) translate(132.505 44.4)"/><path d="M1580 380c0 22.1-49.25 40-110 40s-110-17.9-110-40 49.25-40 110-40 110 17.9 110 40z" stroke="#5e5e5e" stroke-width="3" fill="#fff"/><use xlink:href="#j" transform="matrix(1,0,0,1,1360,340) translate(38.68 44.4)"/><path d="M1580 600.67c0 22.1-49.25 40-110 40s-110-17.9-110-40 49.25-40 110-40 110 17.9 110 40z" stroke="#5e5e5e" stroke-width="3" fill="#fff"/><use xlink:href="#k" transform="matrix(1,0,0,1,1360,560.6666666666667) translate(70.57999999999998 31.9)"/><use xlink:href="#l" transform="matrix(1,0,0,1,1360,560.6666666666667) translate(41.58000000000001 53.5)"/><use xlink:href="#m" transform="matrix(1,0,0,1,1360,560.6666666666667) translate(120.58000000000001 53.5)"/><use xlink:href="#g" transform="matrix(1,0,0,1,1360,560.6666666666667) translate(145.57999999999998 53.5)"/><path d="M1580 260c0 22.1-49.25 40-110 40s-110-17.9-110-40 49.25-40 110-40 110 17.9 110 40z" stroke="#5e5e5e" stroke-width="3" fill="#fff"/><use xlink:href="#n" transform="matrix(1,0,0,1,1360,220) translate(30.20499999999999 44.4)"/><use xlink:href="#o" transform="matrix(1,0,0,1,1360,220) translate(86.105 44.4)"/><use xlink:href="#p" transform="matrix(1,0,0,1,1360,220) translate(123.955 44.4)"/><use xlink:href="#q" transform="matrix(1,0,0,1,1360,220) translate(153.905 44.4)"/><path d="M1342.5 140.32l-31.1.62-36.05 2.24-30 3.14-27.5 4.06-30.13 5.77-105.57 23.06-27.5 4.07-30 3.14-36.06 2.25-46.1.9" stroke="#5e5e5e" stroke-width="2" stroke-linejoin="round" fill="none"/><path d="M1356.5 140.04l-12.85 7.76-.3-15z" stroke="#5e5e5e" stroke-width="2" fill="#5e5e5e"/><path d="M942.53 189.58h-4.03" stroke="#5e5e5e" stroke-width="2" fill="none"/><path d="M1342.5 259.68l-18.62-.38-28.25-1.76-24.06-2.52-21.4-3.15-19.94-3.8-19.9-4.67-22.64-6.35-98.03-30.86-19.9-4.7-19.95-3.8-21.4-3.14-24.05-2.52-28.25-1.76-33.62-.68" stroke="#5e5e5e" stroke-width="2" stroke-linejoin="round" fill="none"/><path d="M1356.5 259.96l-13.14 7.24.3-15z" stroke="#5e5e5e" stroke-width="2" fill="#5e5e5e"/><path d="M942.53 189.58h-4.03" stroke="#5e5e5e" stroke-width="2" fill="none"/><path d="M1349.07 620.6l-27.82 20.02-31.57 20.74-26.56 15.9-23.56 12.8-21.73 10.63-20.65 9.05-20.14 7.84-20.1 6.86-20.52 6.06-21.42 5.37-22.92 4.72-25.2 4.1-28.7 3.44-34.12 2.65-43.25 1.53-18.3.13" stroke="#5e5e5e" stroke-width="2" stroke-linejoin="round" fill="none"/><path d="M1360.42 612.42l-6.16 13.68-8.76-12.18z" stroke="#5e5e5e" stroke-width="2" fill="#5e5e5e"/><path d="M942.53 752.47l-4.03.02" stroke="#5e5e5e" stroke-width="2" fill="none"/><path d="M1342.5 479.7l-151.02-2.8-248.98-6.87" stroke="#5e5e5e" stroke-width="2" stroke-linejoin="round" fill="none"/><path d="M1356.5 479.96l-13.13 7.26.28-15z" stroke="#5e5e5e" stroke-width="2" fill="#5e5e5e"/><path d="M942.53 470h-4.03" stroke="#5e5e5e" stroke-width="2" fill="none"/><path d="M1580 731.67c0 22.1-49.25 40-110 40s-110-17.9-110-40 49.25-40 110-40 110 17.9 110 40z" stroke="#5e5e5e" stroke-width="3" fill="#fff"/><use xlink:href="#k" transform="matrix(1,0,0,1,1360,691.6666666666669) translate(70.57999999999998 31.9)"/><use xlink:href="#r" transform="matrix(1,0,0,1,1360,691.6666666666669) translate(64.08 53.5)"/><path d="M1342.5 731.97l-83.07 1.55-71.03 4.5-147.83 11.46-98.07 1.84" stroke="#5e5e5e" stroke-width="2" stroke-linejoin="round" fill="none"/><path d="M1356.5 731.7l-12.85 7.75-.3-15z" stroke="#5e5e5e" stroke-width="2" fill="#5e5e5e"/><path d="M942.53 751.33h-4.03" stroke="#5e5e5e" stroke-width="2" fill="none"/><path d="M1580 840c0 22.1-49.25 40-110 40s-110-17.9-110-40 49.25-40 110-40 110 17.9 110 40z" stroke="#5e5e5e" stroke-width="3" fill="#fff"/><use xlink:href="#s" transform="matrix(1,0,0,1,1360,800) translate(34.62999999999999 44.4)"/><use xlink:href="#t" transform="matrix(1,0,0,1,1360,800) translate(39.62999999999999 44.4)"/><use xlink:href="#u" transform="matrix(1,0,0,1,1360,800) translate(123.48 44.4)"/><path d="M1342.5 839.67l-7.34-.15-20.03-1.25-17.6-1.84-15.8-2.33-14.57-2.77-13.75-3.23-13.4-3.74-13.6-4.43-14.87-5.53-19.43-8.2-65.13-29.26-14.86-5.54-13.6-4.43-13.4-3.74-13.76-3.22-14.56-2.77-15.82-2.33-17.6-1.84-20.02-1.25-22.34-.45" stroke="#5e5e5e" stroke-width="2" stroke-linejoin="round" fill="none"/><path d="M1356.5 839.96l-13.15 7.23.3-15z" stroke="#5e5e5e" stroke-width="2" fill="#5e5e5e"/><path d="M981.03 750.36v1.95H977v-1.94z" stroke="#5e5e5e" stroke-width=".05" fill="#5e5e5e"/><path d="M1342.52 379.48l-5.96-.38-9.87-1.03-9.32-1.38-8.83-1.7-8.44-1.97-8.13-2.27-7.9-2.57-7.74-2.88-7.63-3.2-7.6-3.6-7.63-3.98-7.8-4.5-8.05-5.12-8.5-5.92-9.28-7.04-10.64-8.82-13.73-12.4-66.17-63.88-10.64-8.82-9.27-7.04-8.53-5.92-8.05-5.12-7.8-4.5-7.63-4-7.6-3.57-7.63-3.22-7.74-2.87-7.9-2.56-8.14-2.27-8.45-1.98-8.84-1.7-9.3-1.37-9.86-1.03-10.56-.66-10.38-.22" stroke="#5e5e5e" stroke-width="2" stroke-linejoin="round" fill="none"/><path d="M1356.5 379.93l-13.23 7.07.5-15z" stroke="#5e5e5e" stroke-width="2" fill="#5e5e5e"/><path d="M981.03 189.03v1.94H977v-1.94z" stroke="#5e5e5e" stroke-width=".05" fill="#5e5e5e"/><path d="M940 518.17v142.16" stroke="#5e5e5e" stroke-width="2" stroke-linejoin="round" fill="none"/><path d="M940 481.5l11.6 35.67h-23.2z" stroke="#5e5e5e" stroke-width="2" fill="#5e5e5e"/><path d="M940 661.33l-.03-1.02h.16z" stroke="#5e5e5e" stroke-width=".05" fill="#5e5e5e"/><path d="M940 362.16V301" stroke="#5e5e5e" stroke-width="2" stroke-linejoin="round" fill="none"/><path d="M940 377.43l-4.63-14.27h9.26z" stroke="#5e5e5e" stroke-width="2" fill="#5e5e5e"/><path d="M940 301.03V300" stroke="#5e5e5e" stroke-width="2" fill="none"/><path d="M939.43 237.5l-.55 38.07 1.1 83.43" stroke="#5e5e5e" stroke-width="2" stroke-linejoin="round" fill="none"/><path d="M939.95 200.84l11.08 35.83-23.17-.33z" stroke="#5e5e5e" stroke-width="2" fill="#5e5e5e"/><path d="M940 358.97V360" stroke="#5e5e5e" stroke-width="2" fill="none"/><defs><path fill="#282c33" d="M33 0v-248h34V0H33" id="v"/><path fill="#282c33" d="M117-194c89-4 53 116 60 194h-32v-121c0-31-8-49-39-48C34-167 62-67 57 0H25l-1-190h30c1 10-1 24 2 32 11-22 29-35 61-36" id="w"/><path fill="#282c33" d="M59-47c-2 24 18 29 38 22v24C64 9 27 4 27-40v-127H5v-23h24l9-43h21v43h35v23H59v120" id="x"/><path fill="#282c33" d="M100-194c63 0 86 42 84 106H49c0 40 14 67 53 68 26 1 43-12 49-29l28 8c-11 28-37 45-77 45C44 4 14-33 15-96c1-61 26-98 85-98zm52 81c6-60-76-77-97-28-3 7-6 17-6 28h103" id="y"/><path fill="#282c33" d="M114-163C36-179 61-72 57 0H25l-1-190h30c1 12-1 29 2 39 6-27 23-49 58-41v29" id="z"/><path fill="#282c33" d="M141-36C126-15 110 5 73 4 37 3 15-17 15-53c-1-64 63-63 125-63 3-35-9-54-41-54-24 1-41 7-42 31l-33-3c5-37 33-52 76-52 45 0 72 20 72 64v82c-1 20 7 32 28 27v20c-31 9-61-2-59-35zM48-53c0 20 12 33 32 33 41-3 63-29 60-74-43 2-92-5-92 41" id="A"/><path fill="#282c33" d="M96-169c-40 0-48 33-48 73s9 75 48 75c24 0 41-14 43-38l32 2c-6 37-31 61-74 61-59 0-76-41-82-99-10-93 101-131 147-64 4 7 5 14 7 22l-32 3c-4-21-16-35-41-35" id="B"/><path fill="#282c33" d="M24-231v-30h32v30H24zM24 0v-190h32V0H24" id="C"/><path fill="#282c33" d="M108 0H70L1-190h34L89-25l56-165h34" id="D"/><g id="a"><use transform="matrix(0.06172839506172839,0,0,0.06172839506172839,0,0)" xlink:href="#v"/><use transform="matrix(0.06172839506172839,0,0,0.06172839506172839,6.172839506172839,0)" xlink:href="#w"/><use transform="matrix(0.06172839506172839,0,0,0.06172839506172839,18.51851851851852,0)" xlink:href="#x"/><use transform="matrix(0.06172839506172839,0,0,0.06172839506172839,24.691358024691358,0)" xlink:href="#y"/><use transform="matrix(0.06172839506172839,0,0,0.06172839506172839,37.03703703703704,0)" xlink:href="#z"/><use transform="matrix(0.06172839506172839,0,0,0.06172839506172839,44.382716049382715,0)" xlink:href="#A"/><use transform="matrix(0.06172839506172839,0,0,0.06172839506172839,56.72839506172839,0)" xlink:href="#B"/><use transform="matrix(0.06172839506172839,0,0,0.06172839506172839,67.8395061728395,0)" xlink:href="#x"/><use transform="matrix(0.06172839506172839,0,0,0.06172839506172839,74.01234567901234,0)" xlink:href="#C"/><use transform="matrix(0.06172839506172839,0,0,0.06172839506172839,78.88888888888889,0)" xlink:href="#D"/><use transform="matrix(0.06172839506172839,0,0,0.06172839506172839,90,0)" xlink:href="#y"/></g><path fill="#282c33" d="M63-220v92h138v28H63V0H30v-248h175v28H63" id="E"/><path fill="#282c33" d="M24 0v-261h32V0H24" id="F"/><path fill="#282c33" d="M115-194c55 1 70 41 70 98S169 2 115 4C84 4 66-9 55-30l1 105H24l-1-265h31l2 30c10-21 28-34 59-34zm-8 174c40 0 45-34 45-75s-6-73-45-74c-42 0-51 32-51 76 0 43 10 73 51 73" id="G"/><path fill="#282c33" d="M160-131c35 5 61 23 61 61C221 17 115-2 30 0v-248c76 3 177-17 177 60 0 33-19 50-47 57zm-97-11c50-1 110 9 110-42 0-47-63-36-110-37v79zm0 115c55-2 124 14 124-45 0-56-70-42-124-44v89" id="H"/><path fill="#282c33" d="M100-194c62-1 85 37 85 99 1 63-27 99-86 99S16-35 15-95c0-66 28-99 85-99zM99-20c44 1 53-31 53-75 0-43-8-75-51-75s-53 32-53 75 10 74 51 75" id="I"/><path fill="#282c33" d="M143 0L79-87 56-68V0H24v-261h32v163l83-92h37l-77 82L181 0h-38" id="J"/><g id="b"><use transform="matrix(0.06172839506172839,0,0,0.06172839506172839,0,0)" xlink:href="#E"/><use transform="matrix(0.06172839506172839,0,0,0.06172839506172839,13.518518518518517,0)" xlink:href="#F"/><use transform="matrix(0.06172839506172839,0,0,0.06172839506172839,18.39506172839506,0)" xlink:href="#C"/><use transform="matrix(0.06172839506172839,0,0,0.06172839506172839,23.2716049382716,0)" xlink:href="#G"/><use transform="matrix(0.06172839506172839,0,0,0.06172839506172839,35.61728395061728,0)" xlink:href="#H"/><use transform="matrix(0.06172839506172839,0,0,0.06172839506172839,50.43209876543209,0)" xlink:href="#I"/><use transform="matrix(0.06172839506172839,0,0,0.06172839506172839,62.777777777777764,0)" xlink:href="#I"/><use transform="matrix(0.06172839506172839,0,0,0.06172839506172839,75.12345679012344,0)" xlink:href="#J"/></g><path fill="#282c33" d="M205 0l-28-72H64L36 0H1l101-248h38L239 0h-34zm-38-99l-47-123c-12 45-31 82-46 123h93" id="K"/><path fill="#282c33" d="M85-194c31 0 48 13 60 33l-1-100h32l1 261h-30c-2-10 0-23-3-31C134-8 116 4 85 4 32 4 16-35 15-94c0-66 23-100 70-100zm9 24c-40 0-46 34-46 75 0 40 6 74 45 74 42 0 51-32 51-76 0-42-9-74-50-73" id="L"/><path fill="#282c33" d="M210-169c-67 3-38 105-44 169h-31v-121c0-29-5-50-35-48C34-165 62-65 56 0H25l-1-190h30c1 10-1 24 2 32 10-44 99-50 107 0 11-21 27-35 58-36 85-2 47 119 55 194h-31v-121c0-29-5-49-35-48" id="M"/><path fill="#282c33" d="M135-143c-3-34-86-38-87 0 15 53 115 12 119 90S17 21 10-45l28-5c4 36 97 45 98 0-10-56-113-15-118-90-4-57 82-63 122-42 12 7 21 19 24 35" id="N"/><g id="c"><use transform="matrix(0.06172839506172839,0,0,0.06172839506172839,0,0)" xlink:href="#K"/><use transform="matrix(0.06172839506172839,0,0,0.06172839506172839,14.814814814814813,0)" xlink:href="#L"/><use transform="matrix(0.06172839506172839,0,0,0.06172839506172839,27.160493827160494,0)" xlink:href="#M"/><use transform="matrix(0.06172839506172839,0,0,0.06172839506172839,45.61728395061728,0)" xlink:href="#C"/><use transform="matrix(0.06172839506172839,0,0,0.06172839506172839,50.49382716049382,0)" xlink:href="#w"/><use transform="matrix(0.06172839506172839,0,0,0.06172839506172839,62.8395061728395,0)" xlink:href="#C"/><use transform="matrix(0.06172839506172839,0,0,0.06172839506172839,67.71604938271604,0)" xlink:href="#N"/><use transform="matrix(0.06172839506172839,0,0,0.06172839506172839,78.82716049382715,0)" xlink:href="#x"/><use transform="matrix(0.06172839506172839,0,0,0.06172839506172839,84.99999999999999,0)" xlink:href="#z"/><use transform="matrix(0.06172839506172839,0,0,0.06172839506172839,92.34567901234567,0)" xlink:href="#A"/><use transform="matrix(0.06172839506172839,0,0,0.06172839506172839,104.69135802469135,0)" xlink:href="#L"/><use transform="matrix(0.06172839506172839,0,0,0.06172839506172839,117.03703703703704,0)" xlink:href="#I"/><use transform="matrix(0.06172839506172839,0,0,0.06172839506172839,129.3827160493827,0)" xlink:href="#z"/></g><path fill="#282c33" d="M84 4C-5 8 30-112 23-190h32v120c0 31 7 50 39 49 72-2 45-101 50-169h31l1 190h-30c-1-10 1-25-2-33-11 22-28 36-60 37" id="O"/><g id="d"><use transform="matrix(0.06172839506172839,0,0,0.06172839506172839,0,0)" xlink:href="#K"/><use transform="matrix(0.06172839506172839,0,0,0.06172839506172839,14.814814814814813,0)" xlink:href="#F"/><use transform="matrix(0.06172839506172839,0,0,0.06172839506172839,19.691358024691354,0)" xlink:href="#O"/><use transform="matrix(0.06172839506172839,0,0,0.06172839506172839,32.03703703703703,0)" xlink:href="#w"/><use transform="matrix(0.06172839506172839,0,0,0.06172839506172839,44.38271604938271,0)" xlink:href="#I"/></g><path fill="#282c33" d="M30 0v-248h187v28H63v79h144v27H63v87h162V0H30" id="P"/><path fill="#282c33" d="M141 0L90-78 38 0H4l68-98-65-92h35l48 74 47-74h35l-64 92 68 98h-35" id="Q"/><g id="e"><use transform="matrix(0.06172839506172839,0,0,0.06172839506172839,0,0)" xlink:href="#P"/><use transform="matrix(0.06172839506172839,0,0,0.06172839506172839,14.814814814814813,0)" xlink:href="#Q"/><use transform="matrix(0.06172839506172839,0,0,0.06172839506172839,25.925925925925924,0)" xlink:href="#x"/><use transform="matrix(0.06172839506172839,0,0,0.06172839506172839,32.098765432098766,0)" xlink:href="#y"/><use transform="matrix(0.06172839506172839,0,0,0.06172839506172839,44.44444444444444,0)" xlink:href="#z"/><use transform="matrix(0.06172839506172839,0,0,0.06172839506172839,51.79012345679012,0)" xlink:href="#w"/><use transform="matrix(0.06172839506172839,0,0,0.06172839506172839,64.1358024691358,0)" xlink:href="#I"/></g><path d="M137 0h-34L2-248h35l83 218 83-218h36" id="R"/><path d="M24-231v-30h32v30H24zM24 0v-190h32V0H24" id="S"/><path d="M135-143c-3-34-86-38-87 0 15 53 115 12 119 90S17 21 10-45l28-5c4 36 97 45 98 0-10-56-113-15-118-90-4-57 82-63 122-42 12 7 21 19 24 35" id="T"/><path d="M84 4C-5 8 30-112 23-190h32v120c0 31 7 50 39 49 72-2 45-101 50-169h31l1 190h-30c-1-10 1-25-2-33-11 22-28 36-60 37" id="U"/><path d="M141-36C126-15 110 5 73 4 37 3 15-17 15-53c-1-64 63-63 125-63 3-35-9-54-41-54-24 1-41 7-42 31l-33-3c5-37 33-52 76-52 45 0 72 20 72 64v82c-1 20 7 32 28 27v20c-31 9-61-2-59-35zM48-53c0 20 12 33 32 33 41-3 63-29 60-74-43 2-92-5-92 41" id="V"/><path d="M24 0v-261h32V0H24" id="W"/><path d="M9 0v-24l116-142H16v-24h144v24L44-24h123V0H9" id="X"/><path d="M114-163C36-179 61-72 57 0H25l-1-190h30c1 12-1 29 2 39 6-27 23-49 58-41v29" id="Y"/><g id="f"><use transform="matrix(0.05,0,0,0.05,0,0)" xlink:href="#R"/><use transform="matrix(0.05,0,0,0.05,11.65,0)" xlink:href="#S"/><use transform="matrix(0.05,0,0,0.05,15.600000000000001,0)" xlink:href="#T"/><use transform="matrix(0.05,0,0,0.05,24.6,0)" xlink:href="#U"/><use transform="matrix(0.05,0,0,0.05,34.6,0)" xlink:href="#V"/><use transform="matrix(0.05,0,0,0.05,44.6,0)" xlink:href="#W"/><use transform="matrix(0.05,0,0,0.05,48.550000000000004,0)" xlink:href="#S"/><use transform="matrix(0.05,0,0,0.05,52.5,0)" xlink:href="#X"/><use transform="matrix(0.05,0,0,0.05,61.5,0)" xlink:href="#V"/><use transform="matrix(0.05,0,0,0.05,71.5,0)" xlink:href="#Y"/></g><path d="M108 0H70L1-190h34L89-25l56-165h34" id="Z"/><path d="M100-194c62-1 85 37 85 99 1 63-27 99-86 99S16-35 15-95c0-66 28-99 85-99zM99-20c44 1 53-31 53-75 0-43-8-75-51-75s-53 32-53 75 10 74 51 75" id="aa"/><g id="g"><use transform="matrix(0.05,0,0,0.05,0,0)" xlink:href="#W"/><use transform="matrix(0.05,0,0,0.05,3.95,0)" xlink:href="#S"/><use transform="matrix(0.05,0,0,0.05,7.9,0)" xlink:href="#Z"/><use transform="matrix(0.05,0,0,0.05,16.9,0)" xlink:href="#Y"/><use transform="matrix(0.05,0,0,0.05,22.849999999999998,0)" xlink:href="#aa"/></g><path d="M143 4C61 4 22-44 18-125c-5-107 100-154 193-111 17 8 29 25 37 43l-32 9c-13-25-37-40-76-40-61 0-88 39-88 99 0 61 29 100 91 101 35 0 62-11 79-27v-45h-74v-28h105v86C228-13 192 4 143 4" id="ab"/><path d="M100-194c63 0 86 42 84 106H49c0 40 14 67 53 68 26 1 43-12 49-29l28 8c-11 28-37 45-77 45C44 4 14-33 15-96c1-61 26-98 85-98zm52 81c6-60-76-77-97-28-3 7-6 17-6 28h103" id="ac"/><path d="M117-194c89-4 53 116 60 194h-32v-121c0-31-8-49-39-48C34-167 62-67 57 0H25l-1-190h30c1 10-1 24 2 32 11-22 29-35 61-36" id="ad"/><path d="M96-169c-40 0-48 33-48 73s9 75 48 75c24 0 41-14 43-38l32 2c-6 37-31 61-74 61-59 0-76-41-82-99-10-93 101-131 147-64 4 7 5 14 7 22l-32 3c-4-21-16-35-41-35" id="ae"/><g id="h"><use transform="matrix(0.05,0,0,0.05,0,0)" xlink:href="#ab"/><use transform="matrix(0.05,0,0,0.05,14,0)" xlink:href="#ac"/><use transform="matrix(0.05,0,0,0.05,24,0)" xlink:href="#Y"/><use transform="matrix(0.05,0,0,0.05,29.950000000000003,0)" xlink:href="#ac"/><use transform="matrix(0.05,0,0,0.05,39.95,0)" xlink:href="#ad"/><use transform="matrix(0.05,0,0,0.05,49.95,0)" xlink:href="#ae"/><use transform="matrix(0.05,0,0,0.05,58.95,0)" xlink:href="#S"/><use transform="matrix(0.05,0,0,0.05,62.900000000000006,0)" xlink:href="#V"/><use transform="matrix(0.05,0,0,0.05,72.9,0)" xlink:href="#Y"/></g><path d="M115-194c55 1 70 41 70 98S169 2 115 4C84 4 66-9 55-30l1 105H24l-1-265h31l2 30c10-21 28-34 59-34zm-8 174c40 0 45-34 45-75s-6-73-45-74c-42 0-51 32-51 76 0 43 10 73 51 73" id="af"/><path d="M101-234c-31-9-42 10-38 44h38v23H63V0H32v-167H5v-23h27c-7-52 17-82 69-68v24" id="ag"/><g id="i"><use transform="matrix(0.05,0,0,0.05,0,0)" xlink:href="#af"/><use transform="matrix(0.05,0,0,0.05,10,0)" xlink:href="#ac"/><use transform="matrix(0.05,0,0,0.05,20,0)" xlink:href="#Y"/><use transform="matrix(0.05,0,0,0.05,25.950000000000003,0)" xlink:href="#ag"/><use transform="matrix(0.05,0,0,0.05,30.950000000000003,0)" xlink:href="#S"/><use transform="matrix(0.05,0,0,0.05,34.9,0)" xlink:href="#W"/></g><path d="M233-177c-1 41-23 64-60 70L243 0h-38l-65-103H63V0H30v-248c88 3 205-21 203 71zM63-129c60-2 137 13 137-47 0-61-80-42-137-45v92" id="ah"/><path d="M177-190C167-65 218 103 67 71c-23-6-38-20-44-43l32-5c15 47 100 32 89-28v-30C133-14 115 1 83 1 29 1 15-40 15-95c0-56 16-97 71-98 29-1 48 16 59 35 1-10 0-23 2-32h30zM94-22c36 0 50-32 50-73 0-42-14-75-50-75-39 0-46 34-46 75s6 73 46 73" id="ai"/><path d="M59-47c-2 24 18 29 38 22v24C64 9 27 4 27-40v-127H5v-23h24l9-43h21v43h35v23H59v120" id="aj"/><path d="M16-82v-28h88v28H16" id="ak"/><path d="M0 4l72-265h28L28 4H0" id="al"/><g id="j"><use transform="matrix(0.05,0,0,0.05,0,0)" xlink:href="#ah"/><use transform="matrix(0.05,0,0,0.05,12.950000000000001,0)" xlink:href="#ac"/><use transform="matrix(0.05,0,0,0.05,22.950000000000003,0)" xlink:href="#ai"/><use transform="matrix(0.05,0,0,0.05,32.95,0)" xlink:href="#S"/><use transform="matrix(0.05,0,0,0.05,36.900000000000006,0)" xlink:href="#T"/><use transform="matrix(0.05,0,0,0.05,45.900000000000006,0)" xlink:href="#aj"/><use transform="matrix(0.05,0,0,0.05,50.900000000000006,0)" xlink:href="#Y"/><use transform="matrix(0.05,0,0,0.05,56.85,0)" xlink:href="#V"/><use transform="matrix(0.05,0,0,0.05,66.85000000000001,0)" xlink:href="#Y"/><use transform="matrix(0.05,0,0,0.05,72.80000000000001,0)" xlink:href="#ak"/><use transform="matrix(0.05,0,0,0.05,78.75000000000001,0)" xlink:href="#T"/><use transform="matrix(0.05,0,0,0.05,87.75000000000001,0)" xlink:href="#ac"/><use transform="matrix(0.05,0,0,0.05,97.75000000000001,0)" xlink:href="#al"/><use transform="matrix(0.05,0,0,0.05,102.75,0)" xlink:href="#W"/><use transform="matrix(0.05,0,0,0.05,106.7,0)" xlink:href="#aa"/><use transform="matrix(0.05,0,0,0.05,116.7,0)" xlink:href="#ai"/><use transform="matrix(0.05,0,0,0.05,126.7,0)" xlink:href="#V"/><use transform="matrix(0.05,0,0,0.05,136.70000000000002,0)" xlink:href="#Y"/></g><g id="k"><use transform="matrix(0.05,0,0,0.05,0,0)" xlink:href="#ab"/><use transform="matrix(0.05,0,0,0.05,14,0)" xlink:href="#ac"/><use transform="matrix(0.05,0,0,0.05,24,0)" xlink:href="#Y"/><use transform="matrix(0.05,0,0,0.05,29.950000000000003,0)" xlink:href="#ac"/><use transform="matrix(0.05,0,0,0.05,39.95,0)" xlink:href="#ad"/><use transform="matrix(0.05,0,0,0.05,49.95,0)" xlink:href="#ae"/><use transform="matrix(0.05,0,0,0.05,58.95,0)" xlink:href="#S"/><use transform="matrix(0.05,0,0,0.05,62.900000000000006,0)" xlink:href="#V"/><use transform="matrix(0.05,0,0,0.05,72.9,0)" xlink:href="#Y"/></g><path d="M85 4C-4 8 31-112 24-190h32v120c0 31 7 50 39 49 72-2 45-101 50-169h31l1 190h-30c-1-10 1-25-2-33-11 22-28 36-60 37zM73-211c8-23 27-35 38-54h36v5l-58 49H73" id="am"/><path d="M85-194c31 0 48 13 60 33l-1-100h32l1 261h-30c-2-10 0-23-3-31C134-8 116 4 85 4 32 4 16-35 15-94c0-66 23-100 70-100zm9 24c-40 0-46 34-46 75 0 40 6 74 45 74 42 0 51-32 51-76 0-42-9-74-50-73" id="an"/><g id="l"><use transform="matrix(0.05,0,0,0.05,0,0)" xlink:href="#ae"/><use transform="matrix(0.05,0,0,0.05,9,0)" xlink:href="#aa"/><use transform="matrix(0.05,0,0,0.05,19,0)" xlink:href="#ad"/><use transform="matrix(0.05,0,0,0.05,29,0)" xlink:href="#aj"/><use transform="matrix(0.05,0,0,0.05,34,0)" xlink:href="#ac"/><use transform="matrix(0.05,0,0,0.05,44,0)" xlink:href="#am"/><use transform="matrix(0.05,0,0,0.05,54,0)" xlink:href="#an"/><use transform="matrix(0.05,0,0,0.05,64,0)" xlink:href="#aa"/></g><g id="m"><use transform="matrix(0.05,0,0,0.05,0,0)" xlink:href="#an"/><use transform="matrix(0.05,0,0,0.05,10,0)" xlink:href="#aa"/></g><path d="M160-131c35 5 61 23 61 61C221 17 115-2 30 0v-248c76 3 177-17 177 60 0 33-19 50-47 57zm-97-11c50-1 110 9 110-42 0-47-63-36-110-37v79zm0 115c55-2 124 14 124-45 0-56-70-42-124-44v89" id="ao"/><path d="M141 0L90-78 38 0H4l68-98-65-92h35l48 74 47-74h35l-64 92 68 98h-35" id="ap"/><g id="n"><use transform="matrix(0.05,0,0,0.05,0,0)" xlink:href="#ao"/><use transform="matrix(0.05,0,0,0.05,12,0)" xlink:href="#V"/><use transform="matrix(0.05,0,0,0.05,22,0)" xlink:href="#S"/><use transform="matrix(0.05,0,0,0.05,25.950000000000003,0)" xlink:href="#ap"/><use transform="matrix(0.05,0,0,0.05,34.95,0)" xlink:href="#V"/><use transform="matrix(0.05,0,0,0.05,44.95,0)" xlink:href="#Y"/></g><g id="o"><use transform="matrix(0.05,0,0,0.05,0,0)" xlink:href="#W"/><use transform="matrix(0.05,0,0,0.05,3.95,0)" xlink:href="#S"/><use transform="matrix(0.05,0,0,0.05,7.9,0)" xlink:href="#Z"/><use transform="matrix(0.05,0,0,0.05,16.9,0)" xlink:href="#Y"/><use transform="matrix(0.05,0,0,0.05,22.849999999999998,0)" xlink:href="#aa"/></g><path d="M210-169c-67 3-38 105-44 169h-31v-121c0-29-5-50-35-48C34-165 62-65 56 0H25l-1-190h30c1 10-1 24 2 32 10-44 99-50 107 0 11-21 27-35 58-36 85-2 47 119 55 194h-31v-121c0-29-5-49-35-48" id="aq"/><g id="p"><use transform="matrix(0.05,0,0,0.05,0,0)" xlink:href="#ac"/><use transform="matrix(0.05,0,0,0.05,10,0)" xlink:href="#aq"/></g><path d="M30-248c87 1 191-15 191 75 0 78-77 80-158 76V0H30v-248zm33 125c57 0 124 11 124-50 0-59-68-47-124-48v98" id="ar"/><path d="M30-248c118-7 216 8 213 122C240-48 200 0 122 0H30v-248zM63-27c89 8 146-16 146-99s-60-101-146-95v194" id="as"/><path d="M63-220v92h138v28H63V0H30v-248h175v28H63" id="at"/><g id="q"><use transform="matrix(0.05,0,0,0.05,0,0)" xlink:href="#ar"/><use transform="matrix(0.05,0,0,0.05,12,0)" xlink:href="#as"/><use transform="matrix(0.05,0,0,0.05,24.950000000000003,0)" xlink:href="#at"/></g><path d="M100-194c62-1 85 37 85 99 1 63-27 99-86 99S16-35 15-95c0-66 28-99 85-99zM99-20c44 1 53-31 53-75 0-43-8-75-51-75s-53 32-53 75 10 74 51 75zm66-238c-3 23-9 48-36 47-26-1-65-44-74 0H39c4-23 8-48 36-47s64 44 74 0h16" id="au"/><g id="r"><use transform="matrix(0.05,0,0,0.05,0,0)" xlink:href="#af"/><use transform="matrix(0.05,0,0,0.05,10,0)" xlink:href="#ac"/><use transform="matrix(0.05,0,0,0.05,20,0)" xlink:href="#Y"/><use transform="matrix(0.05,0,0,0.05,25.950000000000003,0)" xlink:href="#aq"/><use transform="matrix(0.05,0,0,0.05,40.9,0)" xlink:href="#S"/><use transform="matrix(0.05,0,0,0.05,44.85,0)" xlink:href="#T"/><use transform="matrix(0.05,0,0,0.05,53.85,0)" xlink:href="#T"/><use transform="matrix(0.05,0,0,0.05,62.85,0)" xlink:href="#au"/><use transform="matrix(0.05,0,0,0.05,72.85,0)" xlink:href="#ac"/><use transform="matrix(0.05,0,0,0.05,82.85,0)" xlink:href="#T"/></g><g id="t"><use transform="matrix(0.05,0,0,0.05,0,0)" xlink:href="#ab"/><use transform="matrix(0.05,0,0,0.05,14,0)" xlink:href="#ac"/><use transform="matrix(0.05,0,0,0.05,24,0)" xlink:href="#Y"/><use transform="matrix(0.05,0,0,0.05,29.950000000000003,0)" xlink:href="#ac"/><use transform="matrix(0.05,0,0,0.05,39.95,0)" xlink:href="#ad"/><use transform="matrix(0.05,0,0,0.05,49.95,0)" xlink:href="#ae"/><use transform="matrix(0.05,0,0,0.05,58.95,0)" xlink:href="#S"/><use transform="matrix(0.05,0,0,0.05,62.900000000000006,0)" xlink:href="#V"/><use transform="matrix(0.05,0,0,0.05,72.9,0)" xlink:href="#Y"/></g><g id="u"><use transform="matrix(0.05,0,0,0.05,0,0)" xlink:href="#T"/><use transform="matrix(0.05,0,0,0.05,9,0)" xlink:href="#S"/><use transform="matrix(0.05,0,0,0.05,12.949999999999998,0)" xlink:href="#T"/><use transform="matrix(0.05,0,0,0.05,21.95,0)" xlink:href="#aj"/><use transform="matrix(0.05,0,0,0.05,26.950000000000003,0)" xlink:href="#ac"/><use transform="matrix(0.05,0,0,0.05,36.95,0)" xlink:href="#aq"/><use transform="matrix(0.05,0,0,0.05,51.900000000000006,0)" xlink:href="#V"/></g></defs></g></svg>