<svg xmlns="http://www.w3.org/2000/svg" xmlns:xlink="http://www.w3.org/1999/xlink" xmlns:lucid="lucid" width="2062" height="1076"><g transform="translate(1661 576)" lucid:page-tab-id="0_0"><path d="M-2000-1000H500V500h-2500z" fill="#fff"/><path d="M-1320-480h300v239h-300z" stroke="#333" stroke-width="2" fill="#fff"/><path d="M-1320-443.75h300m-300 121.7h300" stroke="#333" stroke-width="2" fill="none"/><use xlink:href="#a" transform="matrix(1,0,0,1,-1312,-472) translate(122.79150390625 16.589501953125)"/><use xlink:href="#b" transform="matrix(1,0,0,1,-1308,-435.74525390625) translate(0 28.7073828125)"/><use xlink:href="#c" transform="matrix(1,0,0,1,-1308,-435.74525390625) translate(12.407871093750002 28.7073828125)"/><use xlink:href="#b" transform="matrix(1,0,0,1,-1308,-435.74525390625) translate(0 48.96212890625)"/><use xlink:href="#d" transform="matrix(1,0,0,1,-1308,-435.74525390625) translate(12.407871093750002 48.96212890625)"/><use xlink:href="#b" transform="matrix(1,0,0,1,-1308,-435.74525390625) translate(0 69.216875)"/><use xlink:href="#e" transform="matrix(1,0,0,1,-1308,-435.74525390625) translate(12.407871093750002 69.216875)"/><use xlink:href="#b" transform="matrix(1,0,0,1,-1308,-435.74525390625) translate(0 89.47162109375)"/><use xlink:href="#f" transform="matrix(1,0,0,1,-1308,-435.74525390625) translate(12.407871093750002 89.47162109375)"/><use xlink:href="#g" transform="matrix(1,0,0,1,-1308,-314.0596028645833) translate(0 28.96212890625)"/><use xlink:href="#h" transform="matrix(1,0,0,1,-1308,-314.0596028645833) translate(0 49.216875)"/><path d="M-1320 80h300v190h-300z" stroke="#333" stroke-width="2" fill="#fff"/><path d="M-1320 116.25h300M-1320 173h300" stroke="#333" stroke-width="2" fill="none"/><use xlink:href="#i" transform="matrix(1,0,0,1,-1312,88) translate(83.55712890625 16.589501953125)"/><use xlink:href="#j" transform="matrix(1,0,0,1,-1308,181.0094921875) translate(0 26.834755859375)"/><use xlink:href="#k" transform="matrix(1,0,0,1,-1308,181.0094921875) translate(0 47.089501953125)"/><use xlink:href="#l" transform="matrix(1,0,0,1,-1308,181.0094921875) translate(0 67.34424804687501)"/><path d="M-860-480h300v239h-300z" stroke="#333" stroke-width="2" fill="#fff"/><path d="M-860-443.75h300m-300 121.52h300" stroke="#333" stroke-width="2" fill="none"/><use xlink:href="#m" transform="matrix(1,0,0,1,-852,-472) translate(121.6430810546875 16.589501953125)"/><use xlink:href="#b" transform="matrix(1,0,0,1,-848,-435.74525390625) translate(0 28.7073828125)"/><use xlink:href="#n" transform="matrix(1,0,0,1,-848,-435.74525390625) translate(12.407871093750002 28.7073828125)"/><use xlink:href="#b" transform="matrix(1,0,0,1,-848,-435.74525390625) translate(0 48.96212890625)"/><use xlink:href="#o" transform="matrix(1,0,0,1,-848,-435.74525390625) translate(12.407871093750002 48.96212890625)"/><use xlink:href="#b" transform="matrix(1,0,0,1,-848,-435.74525390625) translate(0 69.216875)"/><use xlink:href="#p" transform="matrix(1,0,0,1,-848,-435.74525390625) translate(12.407871093750002 69.216875)"/><use xlink:href="#b" transform="matrix(1,0,0,1,-848,-435.74525390625) translate(0 89.47162109375)"/><use xlink:href="#q" transform="matrix(1,0,0,1,-848,-435.74525390625) translate(12.407871093750002 89.47162109375)"/><use xlink:href="#r" transform="matrix(1,0,0,1,-848,-314.22626953125) translate(0 28.96212890625)"/><use xlink:href="#s" transform="matrix(1,0,0,1,-848,-314.22626953125) translate(0 49.216875)"/><path d="M-400-480h300v239h-300z" stroke="#333" stroke-width="2" fill="#fff"/><path d="M-400-443.75h300m-300 121.77h300" stroke="#333" stroke-width="2" fill="none"/><use xlink:href="#t" transform="matrix(1,0,0,1,-392,-472) translate(73.41340820312499 16.589501953125)"/><use xlink:href="#b" transform="matrix(1,0,0,1,-388,-435.74525390625) translate(0 38.834755859375)"/><use xlink:href="#u" transform="matrix(1,0,0,1,-388,-435.74525390625) translate(12.407871093750002 38.834755859375)"/><use xlink:href="#b" transform="matrix(1,0,0,1,-388,-435.74525390625) translate(0 59.089501953125)"/><use xlink:href="#v" transform="matrix(1,0,0,1,-388,-435.74525390625) translate(12.407871093750002 59.089501953125)"/><use xlink:href="#b" transform="matrix(1,0,0,1,-388,-435.74525390625) translate(0 79.34424804687501)"/><use xlink:href="#w" transform="matrix(1,0,0,1,-388,-435.74525390625) translate(12.407871093750002 79.34424804687501)"/><use xlink:href="#x" transform="matrix(1,0,0,1,-388,-313.981015625) translate(0 39.089501953125)"/><path d="M-1170 2.17v52.18" stroke="#3a414a" stroke-width="2" fill="none"/><path d="M-1169.03 2.2h-1.94V1.16h1.94z" stroke="#3a414a" stroke-width=".05" fill="#3a414a"/><path d="M-1170 77l-12.5-21.65h25z" stroke="#3a414a" stroke-width="2" fill="#fff"/><path d="M-1322-360.5h-121" stroke="#3a414a" stroke-width="2" fill="none"/><path d="M-1321-359.52h-1.03v-1.96h1.03z" stroke="#3a414a" stroke-width=".05" fill="#3a414a"/><path d="M-1457-360.5l13-7.5v15z" stroke="#3a414a" stroke-width="2" fill="#3a414a"/><path d="M-1620-388.5a6 6 0 0 1 6-6h148a6 6 0 0 1 6 6v56a6 6 0 0 1-6 6h-148a6 6 0 0 1-6-6z" stroke="#000" stroke-width="2" fill="#fff"/><use xlink:href="#y" transform="matrix(1,0,0,1,-1612,-386.5) translate(12.13671875 34.083767361111114)"/><use xlink:href="#z" transform="matrix(1,0,0,1,-1612,-386.5) translate(94.63454861111111 34.083767361111114)"/><path d="M-1170-239v52.52" stroke="#3a414a" stroke-width="2" fill="none"/><path d="M-1169.03-238.97h-1.94V-240h1.94z" stroke="#3a414a" stroke-width=".05" fill="#3a414a"/><path d="M-1170-163.83l-12.5-21.65h25z" stroke="#3a414a" stroke-width="2" fill="#fff"/><path d="M-710-162v-77" stroke="#3a414a" stroke-width="2" fill="none"/><path d="M-709.02-161H-711v-1.03h1.96zM-709.02-238.97H-711V-240h1.96z" stroke="#3a414a" stroke-width=".05" fill="#3a414a"/><use xlink:href="#A" transform="matrix(1,0,0,1,-701.9999999999999,-181.127373046875) translate(0 16.216875)"/><use xlink:href="#B" transform="matrix(1,0,0,1,-743.1426953125001,-240.12737304687502) translate(0 16.216875)"/><path d="M-860-160h300V1h-300z" stroke="#333" stroke-width="2" fill="#fff"/><path d="M-860-123.75h300m-300 72.5h300" stroke="#333" stroke-width="2" fill="none"/><use xlink:href="#C" transform="matrix(1,0,0,1,-852,-152) translate(114.1967236328125 16.589501953125)"/><use xlink:href="#b" transform="matrix(1,0,0,1,-848,-115.74525390625) translate(0 24.46212890625)"/><use xlink:href="#D" transform="matrix(1,0,0,1,-848,-115.74525390625) translate(12.407871093750002 24.46212890625)"/><use xlink:href="#b" transform="matrix(1,0,0,1,-848,-115.74525390625) translate(0 44.716875)"/><use xlink:href="#E" transform="matrix(1,0,0,1,-848,-115.74525390625) translate(12.407871093750002 44.716875)"/><use xlink:href="#x" transform="matrix(1,0,0,1,-848,-43.23576171875) translate(0 24.589501953125)"/><path d="M-1320-160.83h300v161h-300z" stroke="#333" stroke-width="2" fill="#fff"/><path d="M-1320-124.58h300m-300 74.4h300" stroke="#333" stroke-width="2" fill="none"/><use xlink:href="#F" transform="matrix(1,0,0,1,-1312,-152.83333333333331) translate(117.928076171875 16.589501953125)"/><use xlink:href="#b" transform="matrix(1,0,0,1,-1308,-116.57858723958331) translate(0 23.436654296875002)"/><use xlink:href="#G" transform="matrix(1,0,0,1,-1308,-116.57858723958331) translate(12.407871093750002 23.436654296875002)"/><use xlink:href="#b" transform="matrix(1,0,0,1,-1308,-116.57858723958331) translate(0 47.742349609375)"/><use xlink:href="#H" transform="matrix(1,0,0,1,-1308,-116.57858723958331) translate(12.407871093750002 47.742349609375)"/><path d="M-400-159h300v259h-300z" stroke="#333" stroke-width="2" fill="#fff"/><path d="M-400-122.75h300M-400 29.03h300" stroke="#333" stroke-width="2" fill="none"/><use xlink:href="#I" transform="matrix(1,0,0,1,-392,-151) translate(119.48927734374999 16.589501953125)"/><use xlink:href="#b" transform="matrix(1,0,0,1,-388,-114.74525390625) translate(0 33.580009765625)"/><use xlink:href="#n" transform="matrix(1,0,0,1,-388,-114.74525390625) translate(12.407871093750002 33.580009765625)"/><use xlink:href="#b" transform="matrix(1,0,0,1,-388,-114.74525390625) translate(0 53.834755859375)"/><use xlink:href="#J" transform="matrix(1,0,0,1,-388,-114.74525390625) translate(12.407871093750002 53.834755859375)"/><use xlink:href="#b" transform="matrix(1,0,0,1,-388,-114.74525390625) translate(0 74.089501953125)"/><use xlink:href="#K" transform="matrix(1,0,0,1,-388,-114.74525390625) translate(12.407871093750002 74.089501953125)"/><use xlink:href="#b" transform="matrix(1,0,0,1,-388,-114.74525390625) translate(0 94.344248046875)"/><use xlink:href="#L" transform="matrix(1,0,0,1,-388,-114.74525390625) translate(12.407871093750002 94.344248046875)"/><use xlink:href="#b" transform="matrix(1,0,0,1,-388,-114.74525390625) translate(0 114.59899414062501)"/><use xlink:href="#M" transform="matrix(1,0,0,1,-388,-114.74525390625) translate(12.407871093750002 114.59899414062501)"/><g><use xlink:href="#x" transform="matrix(1,0,0,1,-388,37.02847656249999) translate(0 33.589501953125)"/></g><path d="M-400 202h300v239h-300z" stroke="#333" stroke-width="2" fill="#fff"/><path d="M-400 238.25h300m-300 131.52h300" stroke="#333" stroke-width="2" fill="none"/><g><use xlink:href="#N" transform="matrix(1,0,0,1,-392,210) translate(117.91990234375 16.589501953125)"/></g><g><use xlink:href="#b" transform="matrix(1,0,0,1,-388,246.25474609375) translate(0 33.7073828125)"/><use xlink:href="#n" transform="matrix(1,0,0,1,-388,246.25474609375) translate(12.407871093750002 33.7073828125)"/><use xlink:href="#b" transform="matrix(1,0,0,1,-388,246.25474609375) translate(0 53.96212890625)"/><use xlink:href="#O" transform="matrix(1,0,0,1,-388,246.25474609375) translate(12.407871093750002 53.96212890625)"/><use xlink:href="#b" transform="matrix(1,0,0,1,-388,246.25474609375) translate(0 74.216875)"/><use xlink:href="#P" transform="matrix(1,0,0,1,-388,246.25474609375) translate(12.407871093750002 74.216875)"/><use xlink:href="#b" transform="matrix(1,0,0,1,-388,246.25474609375) translate(0 94.47162109375)"/><use xlink:href="#Q" transform="matrix(1,0,0,1,-388,246.25474609375) translate(12.407871093750002 94.47162109375)"/></g><g><use xlink:href="#x" transform="matrix(1,0,0,1,-388,377.77373046875) translate(0 33.589501953125)"/></g><path d="M-860 80h300v161h-300z" stroke="#333" stroke-width="2" fill="#fff"/><path d="M-860 116.25h300m-300 82.77h300" stroke="#333" stroke-width="2" fill="none"/><g><use xlink:href="#R" transform="matrix(1,0,0,1,-852,88) translate(107.96417968749999 16.589501953125)"/></g><g><use xlink:href="#b" transform="matrix(1,0,0,1,-848,124.25474609375) translate(0 19.334755859375)"/><use xlink:href="#d" transform="matrix(1,0,0,1,-848,124.25474609375) translate(12.407871093750002 19.334755859375)"/><use xlink:href="#b" transform="matrix(1,0,0,1,-848,124.25474609375) translate(0 39.589501953125)"/><use xlink:href="#S" transform="matrix(1,0,0,1,-848,124.25474609375) translate(12.407871093750002 39.589501953125)"/><use xlink:href="#b" transform="matrix(1,0,0,1,-848,124.25474609375) translate(0 59.844248046875)"/><use xlink:href="#T" transform="matrix(1,0,0,1,-848,124.25474609375) translate(12.407871093750002 59.844248046875)"/></g><path d="M-860 320h300v141h-300z" stroke="#333" stroke-width="2" fill="#fff"/><path d="M-860 356.25h300m-300 52.26h300" stroke="#333" stroke-width="2" fill="none"/><g><use xlink:href="#U" transform="matrix(1,0,0,1,-852,328) translate(109.239296875 16.589501953125)"/></g><g><use xlink:href="#b" transform="matrix(1,0,0,1,-848,364.25474609375) translate(0 24.589501953125)"/><use xlink:href="#V" transform="matrix(1,0,0,1,-848,364.25474609375) translate(12.407871093750002 24.589501953125)"/></g><path d="M-401.7 320.8l-156.6-159.6" stroke="#3a414a" stroke-width="2" fill="none"/><path d="M-401 320.1v2.8l-1.4-1.45 1.38-1.37zM-557.6 160.55l-1.38 1.36h-.02v-2.8z" stroke="#3a414a" stroke-width=".05" fill="#3a414a"/><g><use xlink:href="#B" transform="matrix(1,0,0,1,-430.10934486099825,269.24245032129085) translate(0 16.216875)"/></g><g><use xlink:href="#W" transform="matrix(1,0,0,1,-556.9572010618666,193.37502125922543) translate(0 16.216875)"/></g><path d="M-401.92 321.9l-156.16 68.2" stroke="#3a414a" stroke-width="2" fill="none"/><path d="M-401 322.56l-.55.24-.78-1.78 1.33-.58zM-557.67 390.98l-1.33.58v-2.12l.55-.24z" stroke="#3a414a" stroke-width=".05" fill="#3a414a"/><g><use xlink:href="#B" transform="matrix(1,0,0,1,-434.30228367617775,337.16785473620166) translate(0 16.216875)"/></g><g><use xlink:href="#W" transform="matrix(1,0,0,1,-554.8722117764866,389.5248737654509) translate(0 16.216875)"/></g><path d="M60-480h300v218H60z" stroke="#333" stroke-width="2" fill="#fff"/><path d="M60-443.75h300M60-332.48h300" stroke="#333" stroke-width="2" fill="none"/><g><use xlink:href="#X" transform="matrix(1,0,0,1,68,-472) translate(126.28172851562499 16.589501953125)"/></g><g><use xlink:href="#b" transform="matrix(1,0,0,1,72,-435.74525390625) translate(0 33.834755859375)"/><use xlink:href="#n" transform="matrix(1,0,0,1,72,-435.74525390625) translate(12.407871093750002 33.834755859375)"/><use xlink:href="#b" transform="matrix(1,0,0,1,72,-435.74525390625) translate(0 54.089501953125)"/><use xlink:href="#Y" transform="matrix(1,0,0,1,72,-435.74525390625) translate(12.407871093750002 54.089501953125)"/><use xlink:href="#b" transform="matrix(1,0,0,1,72,-435.74525390625) translate(0 74.34424804687501)"/><use xlink:href="#Z" transform="matrix(1,0,0,1,72,-435.74525390625) translate(12.407871093750002 74.34424804687501)"/></g><g><use xlink:href="#x" transform="matrix(1,0,0,1,72,-324.481015625) translate(0 33.589501953125)"/></g><defs><path fill="#333" d="M750 21c-371 0-615-218-615-544v-967h305v942c0 174 123 299 310 299s309-125 309-299v-942h306v967c0 326-247 544-615 544" id="aa"/><path fill="#333" d="M572 22C302 22 117-98 78-306l279-48c29 105 101 156 224 156 114 0 185-48 185-115 0-118-228-130-337-155-215-49-322-150-322-317 0-215 187-347 470-347 265 0 424 116 466 298l-266 47c-24-76-87-130-196-130-98 0-174 46-174 113 0 56 38 95 144 117l201 40c216 44 320 143 320 302 0 220-207 367-500 367" id="ab"/><path fill="#333" d="M633 22C291 22 81-200 81-553c0-345 210-579 537-579 292 0 525 185 525 567v84H378c7 183 109 277 260 277 105 0 184-46 216-132l272 51C1071-99 893 22 633 22zM380-669h474c-15-146-94-237-233-237-143 0-229 99-241 237" id="ac"/><path fill="#333" d="M128 0v-1118h290v195h12c54-169 184-238 367-200v268c-27-8-86-15-130-15-138 0-239 95-239 234V0H128" id="ad"/><g id="a"><use transform="matrix(0.008173828125000001,0,0,0.008173828125000001,0,0)" xlink:href="#aa"/><use transform="matrix(0.008173828125000001,0,0,0.008173828125000001,12.252568359375001,0)" xlink:href="#ab"/><use transform="matrix(0.008173828125000001,0,0,0.008173828125000001,21.627949218750004,0)" xlink:href="#ac"/><use transform="matrix(0.008173828125000001,0,0,0.008173828125000001,31.600019531250005,0)" xlink:href="#ad"/></g><path fill="#333" d="M798-719v166H144v-166h654" id="ae"/><use transform="matrix(0.008173828125000001,0,0,0.008173828125000001,0,0)" xlink:href="#ae" id="b"/><path fill="#333" d="M158 0v-1118h180V0H158zm91-1301c-68 0-125-53-125-119s57-119 125-119c69 0 126 53 126 119s-57 119-126 119" id="af"/><path fill="#333" d="M577 24c-279 0-473-224-473-580 0-354 195-576 474-576 218 0 287 134 324 193h14v-551h180V0H922v-173h-20C865-111 790 24 577 24zm27-161c203 0 314-172 314-421 0-247-108-413-314-413-212 0-317 181-317 413 0 235 108 421 317 421" id="ag"/><g id="c"><use transform="matrix(0.008173828125000001,0,0,0.008173828125000001,0,0)" xlink:href="#af"/><use transform="matrix(0.008173828125000001,0,0,0.008173828125000001,4.05421875,0)" xlink:href="#ag"/></g><path fill="#333" d="M338-670V0H158v-1118h173l1 207c72-158 192-221 342-221 226 0 378 139 378 422V0H872v-695c0-172-96-275-252-275-161 0-282 109-282 300" id="ah"/><path fill="#333" d="M613 24c-304 0-509-231-509-576 0-350 205-580 509-580 305 0 511 230 511 580 0 345-206 576-511 576zm0-161c226 0 329-195 329-415 0-222-103-419-329-419-223 0-326 196-326 419 0 220 103 415 326 415" id="ai"/><path fill="#333" d="M158 0v-1118h175l1 205c55-151 181-225 313-225 147 0 245 90 285 228 53-141 190-228 352-228 194 0 352 125 352 384V0h-181v-749c0-161-105-225-225-225-151 0-243 103-243 244V0H807v-767c0-124-93-207-219-207-131 0-250 92-250 270V0H158" id="aj"/><path fill="#333" d="M628 24c-324 0-524-230-524-574 0-343 198-582 503-582 237 0 487 146 487 559v75H286c9 234 145 362 343 362 132 0 231-58 273-172l174 48C1024-91 857 24 628 24zM287-650h624c-17-190-120-322-304-322-192 0-309 151-320 322" id="ak"/><g id="d"><use transform="matrix(0.008173828125000001,0,0,0.008173828125000001,0,0)" xlink:href="#ah"/><use transform="matrix(0.008173828125000001,0,0,0.008173828125000001,9.89033203125,0)" xlink:href="#ai"/><use transform="matrix(0.008173828125000001,0,0,0.008173828125000001,19.92779296875,0)" xlink:href="#aj"/><use transform="matrix(0.008173828125000001,0,0,0.008173828125000001,34.591640625000004,0)" xlink:href="#ak"/></g><path fill="#333" d="M471 26C259 26 90-98 90-318c0-256 228-303 435-329 202-27 287-16 287-108 0-139-79-219-234-219-161 0-248 86-283 164l-173-57c86-203 278-265 451-265 150 0 419 46 419 395V0H815v-152h-12C765-73 660 26 471 26zm31-159c199 0 310-134 310-271v-155c-30 35-226 55-295 64-131 17-246 59-246 186 0 116 97 176 231 176" id="al"/><path fill="#333" d="M338-1490V0H158v-1490h180" id="am"/><g id="e"><use transform="matrix(0.008173828125000001,0,0,0.008173828125000001,0,0)" xlink:href="#ak"/><use transform="matrix(0.008173828125000001,0,0,0.008173828125000001,9.75955078125,0)" xlink:href="#aj"/><use transform="matrix(0.008173828125000001,0,0,0.008173828125000001,24.42339843750001,0)" xlink:href="#al"/><use transform="matrix(0.008173828125000001,0,0,0.008173828125000001,33.823300781250005,0)" xlink:href="#af"/><use transform="matrix(0.008173828125000001,0,0,0.008173828125000001,37.87751953125,0)" xlink:href="#am"/></g><path fill="#333" d="M538 24C308 24 148-78 108-271l171-41c32 123 123 178 257 178 156 0 256-77 256-169 0-77-54-128-164-154l-186-44c-203-48-300-148-300-305 0-192 176-326 414-326 230 0 351 112 402 269l-163 42c-31-80-94-158-238-158-133 0-233 69-233 162 0 83 57 129 188 160l169 40c203 48 298 149 298 302 0 196-179 339-441 339" id="an"/><path fill="#333" d="M338-670V0H158v-1490h180v566c73-149 190-208 336-208 226 0 379 139 379 422V0H872v-695c0-172-96-275-252-275-161 0-282 109-282 300" id="ao"/><g id="f"><use transform="matrix(0.008173828125000001,0,0,0.008173828125000001,0,0)" xlink:href="#an"/><use transform="matrix(0.008173828125000001,0,0,0.008173828125000001,8.835908203125001,0)" xlink:href="#ak"/><use transform="matrix(0.008173828125000001,0,0,0.008173828125000001,18.595458984375,0)" xlink:href="#ah"/><use transform="matrix(0.008173828125000001,0,0,0.008173828125000001,28.485791015625,0)" xlink:href="#ao"/><use transform="matrix(0.008173828125000001,0,0,0.008173828125000001,38.384296875000004,0)" xlink:href="#al"/></g><path fill="#333" d="M611 442c-248 0-391-105-460-228l146-94c47 65 117 165 314 165 178 0 307-82 307-266v-224h-17C863-141 792-18 576-18c-268 0-472-195-472-546 0-346 197-568 476-568 216 0 288 133 326 193h17v-179h175V29c0 289-215 413-487 413zm-5-620c203 0 314-146 314-390 0-237-108-403-314-403-213 0-319 180-319 403 0 230 109 390 319 390" id="ap"/><path fill="#333" d="M218-607c0-325 108-727 258-974h175c-155 315-250 682-250 974 0 265 78 531 250 886H476C306-10 218-315 218-607" id="aq"/><path fill="#333" d="M96 279C273-86 346-350 346-607c0-292-95-659-250-974h175c150 246 258 650 258 974 0 297-91 602-258 886H96" id="ar"/><g id="g"><use transform="matrix(0.008173828125000001,0,0,0.008173828125000001,0,0)" xlink:href="#am"/><use transform="matrix(0.008173828125000001,0,0,0.008173828125000001,4.05421875,0)" xlink:href="#ai"/><use transform="matrix(0.008173828125000001,0,0,0.008173828125000001,14.091679687500001,0)" xlink:href="#ap"/><use transform="matrix(0.008173828125000001,0,0,0.008173828125000001,24.358007812500002,0)" xlink:href="#af"/><use transform="matrix(0.008173828125000001,0,0,0.008173828125000001,28.412226562500003,0)" xlink:href="#ah"/><use transform="matrix(0.008173828125000001,0,0,0.008173828125000001,38.30255859375001,0)" xlink:href="#aq"/><use transform="matrix(0.008173828125000001,0,0,0.008173828125000001,44.408408203125006,0)" xlink:href="#ar"/></g><path fill="#333" d="M598-1118v154H368v674c0 100 37 144 132 144 23 0 62-6 92-12L629-6c-37 13-88 20-134 20-193 0-307-107-307-290v-688H20v-154h168v-266h180v266h230" id="as"/><path fill="#333" d="M158 0v-1118h174v172h12c41-113 157-188 290-188 26 0 70 2 91 3v181c-11-2-60-10-108-10-161 0-279 109-279 260V0H158" id="at"/><path fill="#333" d="M934 0v166H0V0h934" id="au"/><path fill="#333" d="M158 418v-1536h174v179h20c37-59 106-193 324-193 279 0 474 222 474 576 0 356-194 580-473 580-213 0-288-135-325-197h-14v591H158zm492-555c209 0 317-186 317-421 0-232-105-413-317-413-206 0-314 166-314 413 0 249 111 421 314 421" id="av"/><path fill="#333" d="M678-1118v154H420V0H240v-964H20v-154h220v-149c0-194 155-293 318-293 85 0 141 18 168 30l-50 154c-19-6-47-17-97-17-111 0-159 58-159 166v109h258" id="aw"/><g id="h"><use transform="matrix(0.008173828125000001,0,0,0.008173828125000001,0,0)" xlink:href="#ak"/><use transform="matrix(0.008173828125000001,0,0,0.008173828125000001,9.75955078125,0)" xlink:href="#ag"/><use transform="matrix(0.008173828125000001,0,0,0.008173828125000001,20.009531250000002,0)" xlink:href="#af"/><use transform="matrix(0.008173828125000001,0,0,0.008173828125000001,24.063750000000002,0)" xlink:href="#as"/><use transform="matrix(0.008173828125000001,0,0,0.008173828125000001,29.621953125000005,0)" xlink:href="#al"/><use transform="matrix(0.008173828125000001,0,0,0.008173828125000001,39.021855468750005,0)" xlink:href="#at"/><use transform="matrix(0.008173828125000001,0,0,0.008173828125000001,45.32387695312501,0)" xlink:href="#au"/><use transform="matrix(0.008173828125000001,0,0,0.008173828125000001,53.52222656250001,0)" xlink:href="#av"/><use transform="matrix(0.008173828125000001,0,0,0.008173828125000001,63.77220703125001,0)" xlink:href="#ak"/><use transform="matrix(0.008173828125000001,0,0,0.008173828125000001,73.53175781250002,0)" xlink:href="#at"/><use transform="matrix(0.008173828125000001,0,0,0.008173828125000001,80.09534179687502,0)" xlink:href="#aw"/><use transform="matrix(0.008173828125000001,0,0,0.008173828125000001,86.29110351562503,0)" xlink:href="#af"/><use transform="matrix(0.008173828125000001,0,0,0.008173828125000001,90.34532226562503,0)" xlink:href="#am"/><use transform="matrix(0.008173828125000001,0,0,0.008173828125000001,94.39954101562503,0)" xlink:href="#aq"/><use transform="matrix(0.008173828125000001,0,0,0.008173828125000001,100.50539062500003,0)" xlink:href="#ar"/></g><path fill="#333" d="M49 0l509-1490h400L1480 0h-339l-115-346H497L386 0H49zm524-585h374c-75-213-124-402-192-666-66 268-110 453-182 666" id="ax"/><path fill="#333" d="M537 19C279 19 81-185 81-557c0-382 206-575 454-575 190 0 278 113 318 202h10v-560h300V0H868v-179h-15C812-89 719 19 537 19zm92-241c153 0 240-134 240-336 0-203-86-334-240-334-158 0-240 138-240 334 0 197 84 336 240 336" id="ay"/><path fill="#333" d="M128 0v-1118h278l12 217c60-163 185-234 319-234 143 0 236 81 288 251 63-172 205-251 359-251 205 0 357 138 357 381V0h-301v-697c0-126-76-187-177-187-114 0-184 79-184 196V0H789v-705c0-109-72-179-174-179-106 0-187 74-187 208V0H128" id="az"/><path fill="#333" d="M128 0v-1118h300V0H128zm150-1264c-91 0-165-68-165-154 0-85 74-154 165-154 90 0 165 69 165 154 0 86-75 154-165 154" id="aA"/><path fill="#333" d="M428-647V0H128v-1118h283l4 231c63-156 176-245 348-245 232 0 384 159 384 421V0H847v-659c0-139-76-222-202-222-128 0-217 86-217 234" id="aB"/><path fill="#333" d="M683-1118v229H474v562c0 71 29 104 102 104 23 0 73-7 95-13l43 225C647 9 580 16 520 16 296 16 174-96 174-301v-588H20v-229h154v-266h300v266h209" id="aC"/><path fill="#333" d="M440 22C227 22 68-92 68-313c0-250 202-322 422-343 195-21 271-24 271-105 0-95-63-149-175-149-116 0-187 57-211 129l-275-46c57-194 237-305 487-305 240 0 474 108 474 379V0H777v-155h-10C713-51 605 22 440 22zm85-211c140 0 238-93 238-211v-121c-37 26-156 42-222 51-111 16-185 59-185 149 0 87 70 132 169 132" id="aD"/><path fill="#333" d="M628 22C291 22 81-210 81-554c0-346 210-578 547-578 336 0 547 232 547 578 0 344-211 576-547 576zm0-236c160 0 242-146 242-341 0-197-82-341-242-341S387-753 387-555c0 195 81 341 241 341" id="aE"/><g id="i"><use transform="matrix(0.008173828125000001,0,0,0.008173828125000001,0,0)" xlink:href="#ax"/><use transform="matrix(0.008173828125000001,0,0,0.008173828125000001,12.113613281250002,0)" xlink:href="#ay"/><use transform="matrix(0.008173828125000001,0,0,0.008173828125000001,22.666025390625002,0)" xlink:href="#az"/><use transform="matrix(0.008173828125000001,0,0,0.008173828125000001,37.94291015625001,0)" xlink:href="#aA"/><use transform="matrix(0.008173828125000001,0,0,0.008173828125000001,42.47938476562501,0)" xlink:href="#aB"/><use transform="matrix(0.008173828125000001,0,0,0.008173828125000001,52.90101562500001,0)" xlink:href="#aA"/><use transform="matrix(0.008173828125000001,0,0,0.008173828125000001,57.437490234375005,0)" xlink:href="#ab"/><use transform="matrix(0.008173828125000001,0,0,0.008173828125000001,66.81287109375,0)" xlink:href="#aC"/><use transform="matrix(0.008173828125000001,0,0,0.008173828125000001,72.9432421875,0)" xlink:href="#ad"/><use transform="matrix(0.008173828125000001,0,0,0.008173828125000001,79.53134765625,0)" xlink:href="#aD"/><use transform="matrix(0.008173828125000001,0,0,0.008173828125000001,89.250029296875,0)" xlink:href="#ay"/><use transform="matrix(0.008173828125000001,0,0,0.008173828125000001,99.80244140625,0)" xlink:href="#aE"/><use transform="matrix(0.008173828125000001,0,0,0.008173828125000001,110.06876953125,0)" xlink:href="#ad"/></g><path fill="#333" d="M613 24c-304 0-509-231-509-576 0-350 205-580 509-580 216 0 392 114 453 309l-173 49c-33-115-133-197-280-197-223 0-326 196-326 419 0 220 103 415 326 415 150 0 252-85 285-206l172 49C1010-95 832 24 613 24" id="aF"/><path fill="#333" d="M481 0L54-1118h197c107 314 236 620 325 951 87-331 217-637 324-951h197L670 0H481" id="aG"/><g id="j"><use transform="matrix(0.008173828125000001,0,0,0.008173828125000001,0,0)" xlink:href="#ap"/><use transform="matrix(0.008173828125000001,0,0,0.008173828125000001,10.266328125000001,0)" xlink:href="#ak"/><use transform="matrix(0.008173828125000001,0,0,0.008173828125000001,20.02587890625,0)" xlink:href="#at"/><use transform="matrix(0.008173828125000001,0,0,0.008173828125000001,26.049990234375,0)" xlink:href="#ak"/><use transform="matrix(0.008173828125000001,0,0,0.008173828125000001,35.809541015625,0)" xlink:href="#ah"/><use transform="matrix(0.008173828125000001,0,0,0.008173828125000001,45.699873046875,0)" xlink:href="#aF"/><use transform="matrix(0.008173828125000001,0,0,0.008173828125000001,55.263251953125,0)" xlink:href="#af"/><use transform="matrix(0.008173828125000001,0,0,0.008173828125000001,59.317470703125,0)" xlink:href="#al"/><use transform="matrix(0.008173828125000001,0,0,0.008173828125000001,68.717373046875,0)" xlink:href="#at"/><use transform="matrix(0.008173828125000001,0,0,0.008173828125000001,75.01939453125,0)" xlink:href="#au"/><use transform="matrix(0.008173828125000001,0,0,0.008173828125000001,83.217744140625,0)" xlink:href="#am"/><use transform="matrix(0.008173828125000001,0,0,0.008173828125000001,87.271962890625,0)" xlink:href="#af"/><use transform="matrix(0.008173828125000001,0,0,0.008173828125000001,91.32618164062501,0)" xlink:href="#aG"/><use transform="matrix(0.008173828125000001,0,0,0.008173828125000001,100.73425781250002,0)" xlink:href="#at"/><use transform="matrix(0.008173828125000001,0,0,0.008173828125000001,106.758369140625,0)" xlink:href="#ai"/><use transform="matrix(0.008173828125000001,0,0,0.008173828125000001,116.79583007812501,0)" xlink:href="#aq"/><use transform="matrix(0.008173828125000001,0,0,0.008173828125000001,122.9016796875,0)" xlink:href="#ar"/></g><g id="k"><use transform="matrix(0.008173828125000001,0,0,0.008173828125000001,0,0)" xlink:href="#ap"/><use transform="matrix(0.008173828125000001,0,0,0.008173828125000001,10.266328125000001,0)" xlink:href="#ak"/><use transform="matrix(0.008173828125000001,0,0,0.008173828125000001,20.02587890625,0)" xlink:href="#at"/><use transform="matrix(0.008173828125000001,0,0,0.008173828125000001,26.049990234375,0)" xlink:href="#ak"/><use transform="matrix(0.008173828125000001,0,0,0.008173828125000001,35.809541015625,0)" xlink:href="#ah"/><use transform="matrix(0.008173828125000001,0,0,0.008173828125000001,45.699873046875,0)" xlink:href="#aF"/><use transform="matrix(0.008173828125000001,0,0,0.008173828125000001,55.263251953125,0)" xlink:href="#af"/><use transform="matrix(0.008173828125000001,0,0,0.008173828125000001,59.317470703125,0)" xlink:href="#al"/><use transform="matrix(0.008173828125000001,0,0,0.008173828125000001,68.717373046875,0)" xlink:href="#at"/><use transform="matrix(0.008173828125000001,0,0,0.008173828125000001,75.01939453125,0)" xlink:href="#au"/><use transform="matrix(0.008173828125000001,0,0,0.008173828125000001,83.217744140625,0)" xlink:href="#av"/><use transform="matrix(0.008173828125000001,0,0,0.008173828125000001,93.467724609375,0)" xlink:href="#ak"/><use transform="matrix(0.008173828125000001,0,0,0.008173828125000001,103.227275390625,0)" xlink:href="#at"/><use transform="matrix(0.008173828125000001,0,0,0.008173828125000001,109.790859375,0)" xlink:href="#aj"/><use transform="matrix(0.008173828125000001,0,0,0.008173828125000001,124.45470703125,0)" xlink:href="#af"/><use transform="matrix(0.008173828125000001,0,0,0.008173828125000001,128.50892578124999,0)" xlink:href="#an"/><use transform="matrix(0.008173828125000001,0,0,0.008173828125000001,137.344833984375,0)" xlink:href="#an"/><use transform="matrix(0.008173828125000001,0,0,0.008173828125000001,146.1807421875,0)" xlink:href="#ai"/><use transform="matrix(0.008173828125000001,0,0,0.008173828125000001,156.218203125,0)" xlink:href="#ak"/><use transform="matrix(0.008173828125000001,0,0,0.008173828125000001,165.97775390625,0)" xlink:href="#an"/><use transform="matrix(0.008173828125000001,0,0,0.008173828125000001,174.813662109375,0)" xlink:href="#aq"/><use transform="matrix(0.008173828125000001,0,0,0.008173828125000001,180.91951171875002,0)" xlink:href="#ar"/></g><path fill="#333" d="M537 14c-226 0-379-139-379-422v-710h180v695c0 172 97 275 253 275 160 0 281-109 281-300v-670h181V0H879v-209C806-46 684 14 537 14" id="aH"/><g id="l"><use transform="matrix(0.008173828125000001,0,0,0.008173828125000001,0,0)" xlink:href="#ap"/><use transform="matrix(0.008173828125000001,0,0,0.008173828125000001,10.266328125000001,0)" xlink:href="#ak"/><use transform="matrix(0.008173828125000001,0,0,0.008173828125000001,20.02587890625,0)" xlink:href="#at"/><use transform="matrix(0.008173828125000001,0,0,0.008173828125000001,26.049990234375,0)" xlink:href="#ak"/><use transform="matrix(0.008173828125000001,0,0,0.008173828125000001,35.809541015625,0)" xlink:href="#ah"/><use transform="matrix(0.008173828125000001,0,0,0.008173828125000001,45.699873046875,0)" xlink:href="#aF"/><use transform="matrix(0.008173828125000001,0,0,0.008173828125000001,55.263251953125,0)" xlink:href="#af"/><use transform="matrix(0.008173828125000001,0,0,0.008173828125000001,59.317470703125,0)" xlink:href="#al"/><use transform="matrix(0.008173828125000001,0,0,0.008173828125000001,68.717373046875,0)" xlink:href="#at"/><use transform="matrix(0.008173828125000001,0,0,0.008173828125000001,75.01939453125,0)" xlink:href="#au"/><use transform="matrix(0.008173828125000001,0,0,0.008173828125000001,82.65374999999999,0)" xlink:href="#aH"/><use transform="matrix(0.008173828125000001,0,0,0.008173828125000001,92.55225585937501,0)" xlink:href="#an"/><use transform="matrix(0.008173828125000001,0,0,0.008173828125000001,101.38816406250001,0)" xlink:href="#aH"/><use transform="matrix(0.008173828125000001,0,0,0.008173828125000001,111.28666992187502,0)" xlink:href="#al"/><use transform="matrix(0.008173828125000001,0,0,0.008173828125000001,120.68657226562502,0)" xlink:href="#at"/><use transform="matrix(0.008173828125000001,0,0,0.008173828125000001,127.25015625000002,0)" xlink:href="#af"/><use transform="matrix(0.008173828125000001,0,0,0.008173828125000001,131.30437500000002,0)" xlink:href="#ai"/><use transform="matrix(0.008173828125000001,0,0,0.008173828125000001,141.34183593750004,0)" xlink:href="#an"/><use transform="matrix(0.008173828125000001,0,0,0.008173828125000001,150.17774414062504,0)" xlink:href="#aq"/><use transform="matrix(0.008173828125000001,0,0,0.008173828125000001,156.28359375000005,0)" xlink:href="#ar"/></g><path fill="#333" d="M135 0v-1490h305v1237h643V0H135" id="aI"/><path fill="#333" d="M443 0L31-1118h319c90 293 199 572 268 885 66-313 175-593 264-885h315L784 0H443" id="aJ"/><g id="m"><use transform="matrix(0.008173828125000001,0,0,0.008173828125000001,0,0)" xlink:href="#aI"/><use transform="matrix(0.008173828125000001,0,0,0.008173828125000001,9.465292968750001,0)" xlink:href="#aA"/><use transform="matrix(0.008173828125000001,0,0,0.008173828125000001,14.001767578125001,0)" xlink:href="#aJ"/><use transform="matrix(0.008173828125000001,0,0,0.008173828125000001,24.039228515625002,0)" xlink:href="#ad"/><use transform="matrix(0.008173828125000001,0,0,0.008173828125000001,30.447509765625004,0)" xlink:href="#aE"/></g><g id="n"><use transform="matrix(0.008173828125000001,0,0,0.008173828125000001,0,0)" xlink:href="#as"/><use transform="matrix(0.008173828125000001,0,0,0.008173828125000001,5.4764648437500005,0)" xlink:href="#af"/><use transform="matrix(0.008173828125000001,0,0,0.008173828125000001,9.530683593750002,0)" xlink:href="#as"/><use transform="matrix(0.008173828125000001,0,0,0.008173828125000001,15.007148437500003,0)" xlink:href="#aH"/><use transform="matrix(0.008173828125000001,0,0,0.008173828125000001,24.905654296875007,0)" xlink:href="#am"/><use transform="matrix(0.008173828125000001,0,0,0.008173828125000001,28.959873046875007,0)" xlink:href="#ai"/></g><g id="o"><use transform="matrix(0.008173828125000001,0,0,0.008173828125000001,0,0)" xlink:href="#aF"/><use transform="matrix(0.008173828125000001,0,0,0.008173828125000001,9.726855468750001,0)" xlink:href="#al"/><use transform="matrix(0.008173828125000001,0,0,0.008173828125000001,19.126757812500003,0)" xlink:href="#av"/><use transform="matrix(0.008173828125000001,0,0,0.008173828125000001,29.540214843750007,0)" xlink:href="#al"/></g><path fill="#333" d="M502 418V313h118c73 0 98-17 98-66s-25-65-98-65h-82l21-161C285-4 104-228 104-552c0-350 205-580 509-580 216 0 392 114 453 309l-173 49c-33-115-133-197-280-197-223 0-326 196-326 419 0 220 103 415 326 415 150 0 252-85 285-206l172 49C1015-110 859 5 663 22v64c130 5 189 54 189 162 0 118-71 170-231 170H502" id="aK"/><path fill="#333" d="M471 26C259 26 90-98 90-318c0-256 228-303 435-329 202-27 287-16 287-108 0-139-79-219-234-219-161 0-248 86-283 164l-173-57c86-203 278-265 451-265 150 0 419 46 419 395V0H815v-152h-12C765-73 660 26 471 26zm31-159c199 0 310-134 310-271v-155c-30 35-226 55-295 64-131 17-246 59-246 186 0 116 97 176 231 176zm187-1180c-99 0-192-83-243-83-35 0-51 40-53 79H267c4-120 55-208 162-208 104 0 174 85 241 85 33 0 49-23 56-81h123c-4 126-62 208-160 208" id="aL"/><g id="p"><use transform="matrix(0.008173828125000001,0,0,0.008173828125000001,0,0)" xlink:href="#ag"/><use transform="matrix(0.008173828125000001,0,0,0.008173828125000001,10.249980468750001,0)" xlink:href="#ak"/><use transform="matrix(0.008173828125000001,0,0,0.008173828125000001,20.009531250000002,0)" xlink:href="#aF"/><use transform="matrix(0.008173828125000001,0,0,0.008173828125000001,29.572910156250003,0)" xlink:href="#at"/><use transform="matrix(0.008173828125000001,0,0,0.008173828125000001,36.136494140625004,0)" xlink:href="#af"/><use transform="matrix(0.008173828125000001,0,0,0.008173828125000001,40.19071289062501,0)" xlink:href="#aK"/><use transform="matrix(0.008173828125000001,0,0,0.008173828125000001,49.91756835937501,0)" xlink:href="#aL"/><use transform="matrix(0.008173828125000001,0,0,0.008173828125000001,59.31747070312502,0)" xlink:href="#ai"/></g><path fill="#333" d="M1096 418H916v-591h-14C865-111 790 24 577 24c-279 0-473-224-473-580 0-354 195-576 474-576 218 0 287 134 324 193h20v-179h174V418zM604-137c203 0 314-172 314-421 0-247-108-413-314-413-212 0-317 181-317 413 0 235 108 421 317 421" id="aM"/><path fill="#333" d="M180 0v-1490h510c348 0 508 209 508 474 0 266-160 477-507 477H370V0H180zm190-706h312c236 0 327-133 327-310 0-176-91-307-329-307H370v617" id="aN"/><path fill="#333" d="M645 0H180v-1490h484c435 0 692 280 692 742 0 466-257 748-711 748zM370-168h263c363 0 539-218 539-580 0-358-176-574-521-574H370v1154" id="aO"/><path fill="#333" d="M180 0v-1490h901v168H370v510h643v168H370V0H180" id="aP"/><g id="q"><use transform="matrix(0.008173828125000001,0,0,0.008173828125000001,0,0)" xlink:href="#al"/><use transform="matrix(0.008173828125000001,0,0,0.008173828125000001,9.399902343750002,0)" xlink:href="#at"/><use transform="matrix(0.008173828125000001,0,0,0.008173828125000001,15.424013671875002,0)" xlink:href="#aM"/><use transform="matrix(0.008173828125000001,0,0,0.008173828125000001,25.673994140625005,0)" xlink:href="#aH"/><use transform="matrix(0.008173828125000001,0,0,0.008173828125000001,35.572500000000005,0)" xlink:href="#af"/><use transform="matrix(0.008173828125000001,0,0,0.008173828125000001,39.62671875000001,0)" xlink:href="#aG"/><use transform="matrix(0.008173828125000001,0,0,0.008173828125000001,48.70784179687501,0)" xlink:href="#ai"/><use transform="matrix(0.008173828125000001,0,0,0.008173828125000001,58.74530273437501,0)" xlink:href="#aN"/><use transform="matrix(0.008173828125000001,0,0,0.008173828125000001,69.43666992187501,0)" xlink:href="#aO"/><use transform="matrix(0.008173828125000001,0,0,0.008173828125000001,81.51758789062501,0)" xlink:href="#aP"/></g><path fill="#333" d="M65 0l393-574-370-544h210c88 136 192 297 267 435 67-142 176-302 264-435h206L661-564 1053 0H844c-94-144-206-310-287-458C484-308 366-142 273 0H65" id="aQ"/><path fill="#333" d="M677 24c-213 0-288-135-325-197h-20V0H158v-1490h180v551h14c37-59 106-193 324-193 279 0 474 222 474 576 0 356-194 580-473 580zm-27-161c209 0 317-186 317-421 0-232-105-413-317-413-206 0-314 166-314 413 0 249 111 421 314 421" id="aR"/><path fill="#333" d="M635 20c-292 0-500-160-510-396h192c11 142 145 229 315 229 187 0 323-105 323-260 0-161-125-274-346-274H488v-165h121c174 0 294-100 294-254 0-148-104-245-266-245-152 0-291 85-297 230H157c8-234 222-395 484-395 278 0 448 188 448 400 0 168-95 291-247 336v12c190 31 301 169 301 357 0 244-216 425-508 425" id="aS"/><g id="r"><use transform="matrix(0.008173828125000001,0,0,0.008173828125000001,0,0)" xlink:href="#ak"/><use transform="matrix(0.008173828125000001,0,0,0.008173828125000001,9.383554687500002,0)" xlink:href="#aQ"/><use transform="matrix(0.008173828125000001,0,0,0.008173828125000001,18.521894531250002,0)" xlink:href="#af"/><use transform="matrix(0.008173828125000001,0,0,0.008173828125000001,22.576113281250002,0)" xlink:href="#aR"/><use transform="matrix(0.008173828125000001,0,0,0.008173828125000001,32.826093750000005,0)" xlink:href="#af"/><use transform="matrix(0.008173828125000001,0,0,0.008173828125000001,36.8803125,0)" xlink:href="#at"/><use transform="matrix(0.008173828125000001,0,0,0.008173828125000001,43.182333984375006,0)" xlink:href="#au"/><use transform="matrix(0.008173828125000001,0,0,0.008173828125000001,51.38068359375001,0)" xlink:href="#am"/><use transform="matrix(0.008173828125000001,0,0,0.008173828125000001,55.43490234375001,0)" xlink:href="#af"/><use transform="matrix(0.008173828125000001,0,0,0.008173828125000001,59.489121093750015,0)" xlink:href="#aG"/><use transform="matrix(0.008173828125000001,0,0,0.008173828125000001,68.89719726562501,0)" xlink:href="#at"/><use transform="matrix(0.008173828125000001,0,0,0.008173828125000001,74.92130859375001,0)" xlink:href="#ai"/><use transform="matrix(0.008173828125000001,0,0,0.008173828125000001,84.95876953125001,0)" xlink:href="#aS"/><use transform="matrix(0.008173828125000001,0,0,0.008173828125000001,95.29866210937502,0)" xlink:href="#aO"/><use transform="matrix(0.008173828125000001,0,0,0.008173828125000001,107.37958007812502,0)" xlink:href="#aq"/><use transform="matrix(0.008173828125000001,0,0,0.008173828125000001,113.48542968750002,0)" xlink:href="#ar"/></g><g id="s"><use transform="matrix(0.008173828125000001,0,0,0.008173828125000001,0,0)" xlink:href="#aR"/><use transform="matrix(0.008173828125000001,0,0,0.008173828125000001,10.413457031250001,0)" xlink:href="#al"/><use transform="matrix(0.008173828125000001,0,0,0.008173828125000001,19.813359375000005,0)" xlink:href="#af"/><use transform="matrix(0.008173828125000001,0,0,0.008173828125000001,23.867578125000005,0)" xlink:href="#aQ"/><use transform="matrix(0.008173828125000001,0,0,0.008173828125000001,33.005917968750005,0)" xlink:href="#al"/><use transform="matrix(0.008173828125000001,0,0,0.008173828125000001,42.405820312500005,0)" xlink:href="#at"/><use transform="matrix(0.008173828125000001,0,0,0.008173828125000001,48.707841796875,0)" xlink:href="#au"/><use transform="matrix(0.008173828125000001,0,0,0.008173828125000001,56.90619140625,0)" xlink:href="#aN"/><use transform="matrix(0.008173828125000001,0,0,0.008173828125000001,67.59755859375001,0)" xlink:href="#aO"/><use transform="matrix(0.008173828125000001,0,0,0.008173828125000001,79.67847656250001,0)" xlink:href="#aP"/><use transform="matrix(0.008173828125000001,0,0,0.008173828125000001,89.56063476562501,0)" xlink:href="#aq"/><use transform="matrix(0.008173828125000001,0,0,0.008173828125000001,95.66648437500001,0)" xlink:href="#ar"/></g><path fill="#333" d="M440-1490V0H135v-1490h305" id="aT"/><path fill="#333" d="M571 0L49-1490h339c138 427 271 775 384 1244 111-471 237-815 371-1244h337L970 0H571" id="aU"/><path fill="#333" d="M513 14c-232 0-385-159-385-421v-711h300v659c0 139 76 222 202 222 127 0 217-86 217-234v-647h301V0H864l-4-232C797-74 683 14 513 14" id="aV"/><path fill="#333" d="M428-1490V0H128v-1490h300" id="aW"/><g id="t"><use transform="matrix(0.008173828125000001,0,0,0.008173828125000001,0,0)" xlink:href="#aT"/><use transform="matrix(0.008173828125000001,0,0,0.008173828125000001,4.699951171875001,0)" xlink:href="#ay"/><use transform="matrix(0.008173828125000001,0,0,0.008173828125000001,15.252363281250002,0)" xlink:href="#ac"/><use transform="matrix(0.008173828125000001,0,0,0.008173828125000001,25.224433593750003,0)" xlink:href="#aB"/><use transform="matrix(0.008173828125000001,0,0,0.008173828125000001,35.64606445312501,0)" xlink:href="#aC"/><use transform="matrix(0.008173828125000001,0,0,0.008173828125000001,41.77643554687501,0)" xlink:href="#aA"/><use transform="matrix(0.008173828125000001,0,0,0.008173828125000001,46.312910156250005,0)" xlink:href="#ay"/><use transform="matrix(0.008173828125000001,0,0,0.008173828125000001,56.86532226562501,0)" xlink:href="#aD"/><use transform="matrix(0.008173828125000001,0,0,0.008173828125000001,66.58400390625002,0)" xlink:href="#ay"/><use transform="matrix(0.008173828125000001,0,0,0.008173828125000001,77.136416015625,0)" xlink:href="#ac"/><use transform="matrix(0.008173828125000001,0,0,0.008173828125000001,86.08675781250003,0)" xlink:href="#aU"/><use transform="matrix(0.008173828125000001,0,0,0.008173828125000001,98.58454101562502,0)" xlink:href="#aA"/><use transform="matrix(0.008173828125000001,0,0,0.008173828125000001,103.12101562500003,0)" xlink:href="#ab"/><use transform="matrix(0.008173828125000001,0,0,0.008173828125000001,112.49639648437503,0)" xlink:href="#aV"/><use transform="matrix(0.008173828125000001,0,0,0.008173828125000001,122.91802734375003,0)" xlink:href="#aD"/><use transform="matrix(0.008173828125000001,0,0,0.008173828125000001,132.63670898437502,0)" xlink:href="#aW"/></g><g id="u"><use transform="matrix(0.008173828125000001,0,0,0.008173828125000001,0,0)" xlink:href="#aF"/><use transform="matrix(0.008173828125000001,0,0,0.008173828125000001,9.563378906250001,0)" xlink:href="#ai"/><use transform="matrix(0.008173828125000001,0,0,0.008173828125000001,19.600839843750002,0)" xlink:href="#at"/><use transform="matrix(0.008173828125000001,0,0,0.008173828125000001,25.902861328125002,0)" xlink:href="#au"/><use transform="matrix(0.008173828125000001,0,0,0.008173828125000001,34.1012109375,0)" xlink:href="#av"/><use transform="matrix(0.008173828125000001,0,0,0.008173828125000001,44.35119140625,0)" xlink:href="#at"/><use transform="matrix(0.008173828125000001,0,0,0.008173828125000001,50.914775390624996,0)" xlink:href="#af"/><use transform="matrix(0.008173828125000001,0,0,0.008173828125000001,54.968994140625,0)" xlink:href="#ah"/><use transform="matrix(0.008173828125000001,0,0,0.008173828125000001,64.859326171875,0)" xlink:href="#aF"/><use transform="matrix(0.008173828125000001,0,0,0.008173828125000001,74.422705078125,0)" xlink:href="#af"/><use transform="matrix(0.008173828125000001,0,0,0.008173828125000001,78.47692382812501,0)" xlink:href="#av"/><use transform="matrix(0.008173828125000001,0,0,0.008173828125000001,88.890380859375,0)" xlink:href="#al"/><use transform="matrix(0.008173828125000001,0,0,0.008173828125000001,98.290283203125,0)" xlink:href="#am"/></g><g id="v"><use transform="matrix(0.008173828125000001,0,0,0.008173828125000001,0,0)" xlink:href="#aF"/><use transform="matrix(0.008173828125000001,0,0,0.008173828125000001,9.563378906250001,0)" xlink:href="#ai"/><use transform="matrix(0.008173828125000001,0,0,0.008173828125000001,19.600839843750002,0)" xlink:href="#at"/><use transform="matrix(0.008173828125000001,0,0,0.008173828125000001,25.902861328125002,0)" xlink:href="#au"/><use transform="matrix(0.008173828125000001,0,0,0.008173828125000001,33.537216796875,0)" xlink:href="#an"/><use transform="matrix(0.008173828125000001,0,0,0.008173828125000001,42.373125,0)" xlink:href="#ak"/><use transform="matrix(0.008173828125000001,0,0,0.008173828125000001,52.13267578125,0)" xlink:href="#aF"/><use transform="matrix(0.008173828125000001,0,0,0.008173828125000001,61.6960546875,0)" xlink:href="#aH"/><use transform="matrix(0.008173828125000001,0,0,0.008173828125000001,71.594560546875,0)" xlink:href="#ah"/><use transform="matrix(0.008173828125000001,0,0,0.008173828125000001,81.484892578125,0)" xlink:href="#ag"/><use transform="matrix(0.008173828125000001,0,0,0.008173828125000001,91.734873046875,0)" xlink:href="#al"/><use transform="matrix(0.008173828125000001,0,0,0.008173828125000001,101.134775390625,0)" xlink:href="#at"/><use transform="matrix(0.008173828125000001,0,0,0.008173828125000001,107.698359375,0)" xlink:href="#af"/><use transform="matrix(0.008173828125000001,0,0,0.008173828125000001,111.752578125,0)" xlink:href="#al"/></g><g id="w"><use transform="matrix(0.008173828125000001,0,0,0.008173828125000001,0,0)" xlink:href="#aF"/><use transform="matrix(0.008173828125000001,0,0,0.008173828125000001,9.563378906250001,0)" xlink:href="#ai"/><use transform="matrix(0.008173828125000001,0,0,0.008173828125000001,19.600839843750002,0)" xlink:href="#at"/><use transform="matrix(0.008173828125000001,0,0,0.008173828125000001,25.902861328125002,0)" xlink:href="#au"/><use transform="matrix(0.008173828125000001,0,0,0.008173828125000001,34.1012109375,0)" xlink:href="#ao"/><use transform="matrix(0.008173828125000001,0,0,0.008173828125000001,43.999716796875,0)" xlink:href="#ai"/><use transform="matrix(0.008173828125000001,0,0,0.008173828125000001,53.710224609375,0)" xlink:href="#aG"/><use transform="matrix(0.008173828125000001,0,0,0.008173828125000001,62.79134765625,0)" xlink:href="#ak"/><use transform="matrix(0.008173828125000001,0,0,0.008173828125000001,72.5508984375,0)" xlink:href="#at"/></g><g id="x"><use transform="matrix(0.008173828125000001,0,0,0.008173828125000001,0,0)" xlink:href="#ak"/><use transform="matrix(0.008173828125000001,0,0,0.008173828125000001,9.75955078125,0)" xlink:href="#ag"/><use transform="matrix(0.008173828125000001,0,0,0.008173828125000001,20.009531250000002,0)" xlink:href="#af"/><use transform="matrix(0.008173828125000001,0,0,0.008173828125000001,24.063750000000002,0)" xlink:href="#as"/><use transform="matrix(0.008173828125000001,0,0,0.008173828125000001,29.621953125000005,0)" xlink:href="#al"/><use transform="matrix(0.008173828125000001,0,0,0.008173828125000001,39.021855468750005,0)" xlink:href="#at"/><use transform="matrix(0.008173828125000001,0,0,0.008173828125000001,45.32387695312501,0)" xlink:href="#aq"/><use transform="matrix(0.008173828125000001,0,0,0.008173828125000001,51.42972656250001,0)" xlink:href="#ar"/></g><path d="M795 20C377 20 94-272 94-743c0-483 302-767 694-767 335 0 593 206 635 500h-310c-42-142-154-229-320-229-230 0-389 177-389 493s154 495 393 495c212 0 340-120 345-311H818v-232h620v186c0 391-269 628-643 628" id="aX"/><path d="M628 22C291 22 81-210 81-554c0-346 210-578 547-578 336 0 547 232 547 578 0 344-211 576-547 576zm0-236c160 0 242-146 242-341 0-197-82-341-242-341S387-753 387-555c0 195 81 341 241 341" id="aY"/><path d="M625 442c-280 0-454-114-503-274l258-72c28 63 97 128 243 128 153 0 246-69 246-216v-206h-23C805-108 717-16 536-16 284-16 81-191 81-561c0-378 208-571 456-571 188 0 280 113 321 202h13v-188h295V-9c0 303-226 451-541 451zm5-686c153 0 240-119 240-319 0-198-86-329-240-329-158 0-241 137-241 329 0 195 85 319 241 319" id="aZ"/><path d="M428-1490V0H128v-1490h300" id="ba"/><path d="M633 22C291 22 81-200 81-553c0-345 210-579 537-579 292 0 525 185 525 567v84H378c7 183 109 277 260 277 105 0 184-46 216-132l272 51C1071-99 893 22 633 22zM380-669h474c-15-146-94-237-233-237-143 0-229 99-241 237" id="bb"/><g id="y"><use transform="matrix(0.010850694444444444,0,0,0.010850694444444444,0,0)" xlink:href="#aX"/><use transform="matrix(0.010850694444444444,0,0,0.010850694444444444,16.67751736111111,0)" xlink:href="#aY"/><use transform="matrix(0.010850694444444444,0,0,0.010850694444444444,30.305989583333332,0)" xlink:href="#aY"/><use transform="matrix(0.010850694444444444,0,0,0.010850694444444444,43.93446180555556,0)" xlink:href="#aZ"/><use transform="matrix(0.010850694444444444,0,0,0.010850694444444444,57.97526041666667,0)" xlink:href="#ba"/><use transform="matrix(0.010850694444444444,0,0,0.010850694444444444,63.99739583333333,0)" xlink:href="#bb"/></g><path d="M49 0l509-1490h400L1480 0h-339l-115-346H497L386 0H49zm524-585h374c-75-213-124-402-192-666-66 268-110 453-182 666" id="bc"/><path d="M135 0v-1490h581c339 0 533 210 533 503 0 295-197 500-540 500H440V0H135zm305-733h220c186 0 274-104 274-254s-88-251-275-251H440v505" id="bd"/><path d="M440-1490V0H135v-1490h305" id="be"/><g id="z"><use transform="matrix(0.010850694444444444,0,0,0.010850694444444444,0,0)" xlink:href="#bc"/><use transform="matrix(0.010850694444444444,0,0,0.010850694444444444,16.590711805555554,0)" xlink:href="#bd"/><use transform="matrix(0.010850694444444444,0,0,0.010850694444444444,30.98958333333333,0)" xlink:href="#be"/></g><path d="M653-1490V0H466v-1314h-10L96-1047v-204l324-239h233" id="bf"/><path d="M295 13c-75 0-135-60-135-135s60-135 135-135 135 60 135 135S370 13 295 13" id="bg"/><path d="M441-652l13-317-268 171-72-126 282-146-282-146 72-128 268 171-13-317h144l-12 317 267-171 72 128-282 146 282 146-72 126-267-171 12 317H441" id="bh"/><g id="A"><use transform="matrix(0.008173828125000001,0,0,0.008173828125000001,0,0)" xlink:href="#bf"/><use transform="matrix(0.008173828125000001,0,0,0.008173828125000001,6.808798828125001,0)" xlink:href="#bg"/><use transform="matrix(0.008173828125000001,0,0,0.008173828125000001,11.631357421875002,0)" xlink:href="#bg"/><use transform="matrix(0.008173828125000001,0,0,0.008173828125000001,16.453916015625,0)" xlink:href="#bh"/></g><path d="M646 20c-332 0-524-278-524-764 0-483 194-766 524-766s524 283 524 766c0 485-191 764-524 764zm0-166c218 0 341-220 341-598 0-380-123-601-341-601s-341 222-341 601c0 378 123 598 341 598" id="bi"/><g id="B"><use transform="matrix(0.008173828125000001,0,0,0.008173828125000001,0,0)" xlink:href="#bi"/><use transform="matrix(0.008173828125000001,0,0,0.008173828125000001,10.135546875000001,0)" xlink:href="#bg"/><use transform="matrix(0.008173828125000001,0,0,0.008173828125000001,14.958105468750002,0)" xlink:href="#bg"/><use transform="matrix(0.008173828125000001,0,0,0.008173828125000001,18.333896484375003,0)" xlink:href="#bf"/></g><path fill="#333" d="M135 0v-1490h581c339 0 533 210 533 503 0 295-197 500-540 500H440V0H135zm305-733h220c186 0 274-104 274-254s-88-251-275-251H440v505" id="bj"/><path fill="#333" d="M625 442c-280 0-454-114-503-274l258-72c28 63 97 128 243 128 153 0 246-69 246-216v-206h-23C805-108 717-16 536-16 284-16 81-191 81-561c0-378 208-571 456-571 188 0 280 113 321 202h13v-188h295V-9c0 303-226 451-541 451zm5-686c153 0 240-119 240-319 0-198-86-329-240-329-158 0-241 137-241 329 0 195 85 319 241 319" id="bk"/><g id="C"><use transform="matrix(0.008173828125000001,0,0,0.008173828125000001,0,0)" xlink:href="#bj"/><use transform="matrix(0.008173828125000001,0,0,0.008173828125000001,10.634150390625,0)" xlink:href="#aD"/><use transform="matrix(0.008173828125000001,0,0,0.008173828125000001,20.352832031250003,0)" xlink:href="#bk"/><use transform="matrix(0.008173828125000001,0,0,0.008173828125000001,30.929765625,0)" xlink:href="#aA"/><use transform="matrix(0.008173828125000001,0,0,0.008173828125000001,35.466240234375,0)" xlink:href="#aB"/><use transform="matrix(0.008173828125000001,0,0,0.008173828125000001,45.88787109375,0)" xlink:href="#aD"/></g><g id="D"><use transform="matrix(0.008173828125000001,0,0,0.008173828125000001,0,0)" xlink:href="#ah"/><use transform="matrix(0.008173828125000001,0,0,0.008173828125000001,9.89033203125,0)" xlink:href="#aH"/><use transform="matrix(0.008173828125000001,0,0,0.008173828125000001,19.788837890625004,0)" xlink:href="#aj"/><use transform="matrix(0.008173828125000001,0,0,0.008173828125000001,34.452685546875,0)" xlink:href="#ak"/><use transform="matrix(0.008173828125000001,0,0,0.008173828125000001,44.212236328125,0)" xlink:href="#at"/><use transform="matrix(0.008173828125000001,0,0,0.008173828125000001,50.236347656250004,0)" xlink:href="#ai"/><use transform="matrix(0.008173828125000001,0,0,0.008173828125000001,60.273808593750005,0)" xlink:href="#au"/><use transform="matrix(0.008173828125000001,0,0,0.008173828125000001,68.472158203125,0)" xlink:href="#av"/><use transform="matrix(0.008173828125000001,0,0,0.008173828125000001,78.885615234375,0)" xlink:href="#al"/><use transform="matrix(0.008173828125000001,0,0,0.008173828125000001,88.285517578125,0)" xlink:href="#ap"/><use transform="matrix(0.008173828125000001,0,0,0.008173828125000001,98.551845703125,0)" xlink:href="#af"/><use transform="matrix(0.008173828125000001,0,0,0.008173828125000001,102.606064453125,0)" xlink:href="#ah"/><use transform="matrix(0.008173828125000001,0,0,0.008173828125000001,112.496396484375,0)" xlink:href="#al"/></g><g id="E"><use transform="matrix(0.008173828125000001,0,0,0.008173828125000001,0,0)" xlink:href="#al"/><use transform="matrix(0.008173828125000001,0,0,0.008173828125000001,9.399902343750002,0)" xlink:href="#at"/><use transform="matrix(0.008173828125000001,0,0,0.008173828125000001,15.424013671875002,0)" xlink:href="#aM"/><use transform="matrix(0.008173828125000001,0,0,0.008173828125000001,25.673994140625005,0)" xlink:href="#aH"/><use transform="matrix(0.008173828125000001,0,0,0.008173828125000001,35.572500000000005,0)" xlink:href="#af"/><use transform="matrix(0.008173828125000001,0,0,0.008173828125000001,39.62671875000001,0)" xlink:href="#aG"/><use transform="matrix(0.008173828125000001,0,0,0.008173828125000001,48.70784179687501,0)" xlink:href="#ai"/><use transform="matrix(0.008173828125000001,0,0,0.008173828125000001,58.74530273437501,0)" xlink:href="#au"/><use transform="matrix(0.008173828125000001,0,0,0.008173828125000001,66.94365234375,0)" xlink:href="#av"/><use transform="matrix(0.008173828125000001,0,0,0.008173828125000001,77.357109375,0)" xlink:href="#al"/><use transform="matrix(0.008173828125000001,0,0,0.008173828125000001,86.75701171875,0)" xlink:href="#ap"/><use transform="matrix(0.008173828125000001,0,0,0.008173828125000001,97.02333984375,0)" xlink:href="#af"/><use transform="matrix(0.008173828125000001,0,0,0.008173828125000001,101.07755859375,0)" xlink:href="#ah"/><use transform="matrix(0.008173828125000001,0,0,0.008173828125000001,110.967890625,0)" xlink:href="#al"/></g><g id="F"><use transform="matrix(0.008173828125000001,0,0,0.008173828125000001,0,0)" xlink:href="#ax"/><use transform="matrix(0.008173828125000001,0,0,0.008173828125000001,12.497783203125001,0)" xlink:href="#aW"/><use transform="matrix(0.008173828125000001,0,0,0.008173828125000001,17.0342578125,0)" xlink:href="#aV"/><use transform="matrix(0.008173828125000001,0,0,0.008173828125000001,27.455888671875,0)" xlink:href="#aB"/><use transform="matrix(0.008173828125000001,0,0,0.008173828125000001,37.87751953125,0)" xlink:href="#aE"/></g><path fill="#333" d="M126 0v-134l627-806v-11H146v-167h839v143L376-178v11h629V0H126" id="bl"/><g id="G"><use transform="matrix(0.008173828125000001,0,0,0.008173828125000001,0,0)" xlink:href="#av"/><use transform="matrix(0.008173828125000001,0,0,0.008173828125000001,10.249980468750001,0)" xlink:href="#ak"/><use transform="matrix(0.008173828125000001,0,0,0.008173828125000001,20.009531250000002,0)" xlink:href="#at"/><use transform="matrix(0.008173828125000001,0,0,0.008173828125000001,26.311552734375002,0)" xlink:href="#an"/><use transform="matrix(0.008173828125000001,0,0,0.008173828125000001,35.1474609375,0)" xlink:href="#ai"/><use transform="matrix(0.008173828125000001,0,0,0.008173828125000001,45.184921875,0)" xlink:href="#ah"/><use transform="matrix(0.008173828125000001,0,0,0.008173828125000001,55.07525390625,0)" xlink:href="#al"/><use transform="matrix(0.008173828125000001,0,0,0.008173828125000001,64.47515625,0)" xlink:href="#am"/><use transform="matrix(0.008173828125000001,0,0,0.008173828125000001,68.529375,0)" xlink:href="#af"/><use transform="matrix(0.008173828125000001,0,0,0.008173828125000001,72.58359375,0)" xlink:href="#bl"/><use transform="matrix(0.008173828125000001,0,0,0.008173828125000001,81.828193359375,0)" xlink:href="#al"/><use transform="matrix(0.008173828125000001,0,0,0.008173828125000001,91.228095703125,0)" xlink:href="#at"/><use transform="matrix(0.008173828125000001,0,0,0.008173828125000001,97.53011718750001,0)" xlink:href="#au"/><use transform="matrix(0.008173828125000001,0,0,0.008173828125000001,105.72846679687501,0)" xlink:href="#av"/><use transform="matrix(0.008173828125000001,0,0,0.008173828125000001,115.97844726562501,0)" xlink:href="#ak"/><use transform="matrix(0.008173828125000001,0,0,0.008173828125000001,125.737998046875,0)" xlink:href="#at"/><use transform="matrix(0.008173828125000001,0,0,0.008173828125000001,132.30158203125,0)" xlink:href="#aw"/><use transform="matrix(0.008173828125000001,0,0,0.008173828125000001,138.49734375,0)" xlink:href="#af"/><use transform="matrix(0.008173828125000001,0,0,0.008173828125000001,142.5515625,0)" xlink:href="#am"/></g><g id="H"><use transform="matrix(0.008173828125000001,0,0,0.008173828125000001,0,0)" xlink:href="#ap"/><use transform="matrix(0.008173828125000001,0,0,0.008173828125000001,10.266328125000001,0)" xlink:href="#ak"/><use transform="matrix(0.008173828125000001,0,0,0.008173828125000001,20.02587890625,0)" xlink:href="#at"/><use transform="matrix(0.008173828125000001,0,0,0.008173828125000001,26.049990234375,0)" xlink:href="#ak"/><use transform="matrix(0.008173828125000001,0,0,0.008173828125000001,35.809541015625,0)" xlink:href="#ah"/><use transform="matrix(0.008173828125000001,0,0,0.008173828125000001,45.699873046875,0)" xlink:href="#aF"/><use transform="matrix(0.008173828125000001,0,0,0.008173828125000001,55.263251953125,0)" xlink:href="#af"/><use transform="matrix(0.008173828125000001,0,0,0.008173828125000001,59.317470703125,0)" xlink:href="#al"/><use transform="matrix(0.008173828125000001,0,0,0.008173828125000001,68.717373046875,0)" xlink:href="#at"/><use transform="matrix(0.008173828125000001,0,0,0.008173828125000001,75.01939453125,0)" xlink:href="#au"/><use transform="matrix(0.008173828125000001,0,0,0.008173828125000001,82.65374999999999,0)" xlink:href="#ag"/><use transform="matrix(0.008173828125000001,0,0,0.008173828125000001,92.90373046875,0)" xlink:href="#al"/><use transform="matrix(0.008173828125000001,0,0,0.008173828125000001,102.3036328125,0)" xlink:href="#ag"/><use transform="matrix(0.008173828125000001,0,0,0.008173828125000001,112.55361328125,0)" xlink:href="#ai"/><use transform="matrix(0.008173828125000001,0,0,0.008173828125000001,122.59107421875,0)" xlink:href="#an"/><use transform="matrix(0.008173828125000001,0,0,0.008173828125000001,131.42698242187498,0)" xlink:href="#au"/><use transform="matrix(0.008173828125000001,0,0,0.008173828125000001,139.62533203124997,0)" xlink:href="#av"/><use transform="matrix(0.008173828125000001,0,0,0.008173828125000001,149.87531249999998,0)" xlink:href="#ak"/><use transform="matrix(0.008173828125000001,0,0,0.008173828125000001,159.63486328124998,0)" xlink:href="#an"/><use transform="matrix(0.008173828125000001,0,0,0.008173828125000001,168.47077148437498,0)" xlink:href="#an"/><use transform="matrix(0.008173828125000001,0,0,0.008173828125000001,177.30667968749998,0)" xlink:href="#ai"/><use transform="matrix(0.008173828125000001,0,0,0.008173828125000001,187.5076171875,0)" xlink:href="#al"/><use transform="matrix(0.008173828125000001,0,0,0.008173828125000001,196.90751953125,0)" xlink:href="#af"/><use transform="matrix(0.008173828125000001,0,0,0.008173828125000001,200.96173828124998,0)" xlink:href="#an"/></g><path fill="#333" d="M42 0l360-574-338-544h324c72 124 151 261 209 394 58-134 140-271 215-394h318L785-570 1146 0H824c-79-136-169-280-234-425C528-278 439-134 360 0H42" id="bm"/><g id="I"><use transform="matrix(0.008173828125000001,0,0,0.008173828125000001,0,0)" xlink:href="#aT"/><use transform="matrix(0.008173828125000001,0,0,0.008173828125000001,4.699951171875001,0)" xlink:href="#aB"/><use transform="matrix(0.008173828125000001,0,0,0.008173828125000001,15.121582031250004,0)" xlink:href="#ay"/><use transform="matrix(0.008173828125000001,0,0,0.008173828125000001,25.673994140625005,0)" xlink:href="#ac"/><use transform="matrix(0.008173828125000001,0,0,0.008173828125000001,35.31093750000001,0)" xlink:href="#bm"/></g><g id="J"><use transform="matrix(0.008173828125000001,0,0,0.008173828125000001,0,0)" xlink:href="#aw"/><use transform="matrix(0.008173828125000001,0,0,0.008173828125000001,6.195761718750001,0)" xlink:href="#at"/><use transform="matrix(0.008173828125000001,0,0,0.008173828125000001,12.497783203125001,0)" xlink:href="#al"/><use transform="matrix(0.008173828125000001,0,0,0.008173828125000001,21.897685546875003,0)" xlink:href="#an"/><use transform="matrix(0.008173828125000001,0,0,0.008173828125000001,30.733593750000004,0)" xlink:href="#ak"/><use transform="matrix(0.008173828125000001,0,0,0.008173828125000001,40.49314453125,0)" xlink:href="#au"/><use transform="matrix(0.008173828125000001,0,0,0.008173828125000001,48.691494140625004,0)" xlink:href="#af"/><use transform="matrix(0.008173828125000001,0,0,0.008173828125000001,52.745712890625,0)" xlink:href="#ah"/><use transform="matrix(0.008173828125000001,0,0,0.008173828125000001,62.636044921875,0)" xlink:href="#af"/><use transform="matrix(0.008173828125000001,0,0,0.008173828125000001,66.690263671875,0)" xlink:href="#aF"/><use transform="matrix(0.008173828125000001,0,0,0.008173828125000001,76.25364257812501,0)" xlink:href="#af"/><use transform="matrix(0.008173828125000001,0,0,0.008173828125000001,80.30786132812501,0)" xlink:href="#ai"/></g><g id="K"><use transform="matrix(0.008173828125000001,0,0,0.008173828125000001,0,0)" xlink:href="#ai"/><use transform="matrix(0.008173828125000001,0,0,0.008173828125000001,10.0374609375,0)" xlink:href="#au"/><use transform="matrix(0.008173828125000001,0,0,0.008173828125000001,17.671816406250002,0)" xlink:href="#aM"/><use transform="matrix(0.008173828125000001,0,0,0.008173828125000001,27.921796875000005,0)" xlink:href="#aH"/><use transform="matrix(0.008173828125000001,0,0,0.008173828125000001,37.820302734375005,0)" xlink:href="#ak"/><use transform="matrix(0.008173828125000001,0,0,0.008173828125000001,47.579853515625004,0)" xlink:href="#au"/><use transform="matrix(0.008173828125000001,0,0,0.008173828125000001,55.214208984375006,0)" xlink:href="#ak"/><use transform="matrix(0.008173828125000001,0,0,0.008173828125000001,64.973759765625,0)" xlink:href="#au"/><use transform="matrix(0.008173828125000001,0,0,0.008173828125000001,72.608115234375,0)" xlink:href="#an"/><use transform="matrix(0.008173828125000001,0,0,0.008173828125000001,81.44402343750001,0)" xlink:href="#af"/><use transform="matrix(0.008173828125000001,0,0,0.008173828125000001,85.49824218750001,0)" xlink:href="#as"/><use transform="matrix(0.008173828125000001,0,0,0.008173828125000001,90.81123046875001,0)" xlink:href="#ak"/><use transform="matrix(0.008173828125000001,0,0,0.008173828125000001,100.57078125000001,0)" xlink:href="#au"/><use transform="matrix(0.008173828125000001,0,0,0.008173828125000001,108.20513671875001,0)" xlink:href="#as"/><use transform="matrix(0.008173828125000001,0,0,0.008173828125000001,113.68160156250002,0)" xlink:href="#af"/><use transform="matrix(0.008173828125000001,0,0,0.008173828125000001,117.73582031250001,0)" xlink:href="#as"/><use transform="matrix(0.008173828125000001,0,0,0.008173828125000001,123.21228515625,0)" xlink:href="#aH"/><use transform="matrix(0.008173828125000001,0,0,0.008173828125000001,133.110791015625,0)" xlink:href="#am"/><use transform="matrix(0.008173828125000001,0,0,0.008173828125000001,137.16500976562497,0)" xlink:href="#ai"/></g><g id="L"><use transform="matrix(0.008173828125000001,0,0,0.008173828125000001,0,0)" xlink:href="#ai"/><use transform="matrix(0.008173828125000001,0,0,0.008173828125000001,10.0374609375,0)" xlink:href="#au"/><use transform="matrix(0.008173828125000001,0,0,0.008173828125000001,17.671816406250002,0)" xlink:href="#aM"/><use transform="matrix(0.008173828125000001,0,0,0.008173828125000001,27.921796875000005,0)" xlink:href="#aH"/><use transform="matrix(0.008173828125000001,0,0,0.008173828125000001,37.820302734375005,0)" xlink:href="#ak"/><use transform="matrix(0.008173828125000001,0,0,0.008173828125000001,47.579853515625004,0)" xlink:href="#au"/><use transform="matrix(0.008173828125000001,0,0,0.008173828125000001,55.214208984375006,0)" xlink:href="#ak"/><use transform="matrix(0.008173828125000001,0,0,0.008173828125000001,64.973759765625,0)" xlink:href="#au"/><use transform="matrix(0.008173828125000001,0,0,0.008173828125000001,72.608115234375,0)" xlink:href="#ai"/><use transform="matrix(0.008173828125000001,0,0,0.008173828125000001,82.645576171875,0)" xlink:href="#au"/><use transform="matrix(0.008173828125000001,0,0,0.008173828125000001,90.27993164062501,0)" xlink:href="#an"/><use transform="matrix(0.008173828125000001,0,0,0.008173828125000001,99.11583984375001,0)" xlink:href="#af"/><use transform="matrix(0.008173828125000001,0,0,0.008173828125000001,103.17005859375001,0)" xlink:href="#as"/><use transform="matrix(0.008173828125000001,0,0,0.008173828125000001,108.48304687500001,0)" xlink:href="#ak"/></g><g id="M"><use transform="matrix(0.008173828125000001,0,0,0.008173828125000001,0,0)" xlink:href="#an"/><use transform="matrix(0.008173828125000001,0,0,0.008173828125000001,8.835908203125001,0)" xlink:href="#al"/><use transform="matrix(0.008173828125000001,0,0,0.008173828125000001,18.235810546875,0)" xlink:href="#af"/><use transform="matrix(0.008173828125000001,0,0,0.008173828125000001,22.290029296875,0)" xlink:href="#aR"/><use transform="matrix(0.008173828125000001,0,0,0.008173828125000001,32.703486328125,0)" xlink:href="#al"/><use transform="matrix(0.008173828125000001,0,0,0.008173828125000001,42.103388671875,0)" xlink:href="#au"/><use transform="matrix(0.008173828125000001,0,0,0.008173828125000001,50.30173828125,0)" xlink:href="#aj"/><use transform="matrix(0.008173828125000001,0,0,0.008173828125000001,64.96558593750001,0)" xlink:href="#al"/><use transform="matrix(0.008173828125000001,0,0,0.008173828125000001,74.36548828125001,0)" xlink:href="#af"/><use transform="matrix(0.008173828125000001,0,0,0.008173828125000001,78.41970703125001,0)" xlink:href="#an"/><use transform="matrix(0.008173828125000001,0,0,0.008173828125000001,87.25561523437501,0)" xlink:href="#au"/><use transform="matrix(0.008173828125000001,0,0,0.008173828125000001,94.88997070312502,0)" xlink:href="#as"/><use transform="matrix(0.008173828125000001,0,0,0.008173828125000001,100.20295898437502,0)" xlink:href="#ak"/><use transform="matrix(0.008173828125000001,0,0,0.008173828125000001,109.58651367187501,0)" xlink:href="#aQ"/><use transform="matrix(0.008173828125000001,0,0,0.008173828125000001,119.05180664062502,0)" xlink:href="#as"/><use transform="matrix(0.008173828125000001,0,0,0.008173828125000001,124.36479492187502,0)" xlink:href="#ai"/></g><path fill="#333" d="M681 22C323 22 94-145 85-462h297c10 151 131 226 296 226 163 0 271-77 271-190 0-102-95-149-257-189l-164-41c-252-61-403-188-403-405 0-269 236-449 560-449 330 0 546 183 551 445H941c-11-119-106-188-259-188-156 0-244 72-244 172-3 156 226 185 373 221 250 61 445 186 445 436 0 271-213 446-575 446" id="bn"/><path fill="#333" d="M754 19C571 19 479-89 437-179h-14V0H128v-1490h300v560h9c41-89 129-202 319-202 248 0 453 193 453 575 0 372-197 576-455 576zm-92-241c156 0 240-139 240-336 0-196-83-334-240-334-154 0-241 131-241 334 0 202 88 336 241 336" id="bo"/><g id="N"><use transform="matrix(0.008173828125000001,0,0,0.008173828125000001,0,0)" xlink:href="#bn"/><use transform="matrix(0.008173828125000001,0,0,0.008173828125000001,10.961103515625002,0)" xlink:href="#aE"/><use transform="matrix(0.008173828125000001,0,0,0.008173828125000001,21.227431640625003,0)" xlink:href="#bo"/><use transform="matrix(0.008173828125000001,0,0,0.008173828125000001,31.779843750000005,0)" xlink:href="#ad"/><use transform="matrix(0.008173828125000001,0,0,0.008173828125000001,38.18812500000001,0)" xlink:href="#ac"/></g><g id="O"><use transform="matrix(0.008173828125000001,0,0,0.008173828125000001,0,0)" xlink:href="#an"/><use transform="matrix(0.008173828125000001,0,0,0.008173828125000001,8.835908203125001,0)" xlink:href="#ai"/><use transform="matrix(0.008173828125000001,0,0,0.008173828125000001,18.873369140625,0)" xlink:href="#aR"/><use transform="matrix(0.008173828125000001,0,0,0.008173828125000001,29.123349609375005,0)" xlink:href="#at"/><use transform="matrix(0.008173828125000001,0,0,0.008173828125000001,35.1474609375,0)" xlink:href="#ak"/><use transform="matrix(0.008173828125000001,0,0,0.008173828125000001,44.90701171875,0)" xlink:href="#au"/><use transform="matrix(0.008173828125000001,0,0,0.008173828125000001,53.105361328125,0)" xlink:href="#ah"/><use transform="matrix(0.008173828125000001,0,0,0.008173828125000001,62.995693359375,0)" xlink:href="#ai"/><use transform="matrix(0.008173828125000001,0,0,0.008173828125000001,73.033154296875,0)" xlink:href="#an"/></g><g id="P"><use transform="matrix(0.008173828125000001,0,0,0.008173828125000001,0,0)" xlink:href="#an"/><use transform="matrix(0.008173828125000001,0,0,0.008173828125000001,8.835908203125001,0)" xlink:href="#ak"/><use transform="matrix(0.008173828125000001,0,0,0.008173828125000001,18.595458984375,0)" xlink:href="#aF"/><use transform="matrix(0.008173828125000001,0,0,0.008173828125000001,28.322314453125003,0)" xlink:href="#al"/><use transform="matrix(0.008173828125000001,0,0,0.008173828125000001,37.722216796875,0)" xlink:href="#ai"/><use transform="matrix(0.008173828125000001,0,0,0.008173828125000001,47.759677734375,0)" xlink:href="#au"/><use transform="matrix(0.008173828125000001,0,0,0.008173828125000001,55.394033203125005,0)" xlink:href="#as"/><use transform="matrix(0.008173828125000001,0,0,0.008173828125000001,60.87049804687501,0)" xlink:href="#af"/><use transform="matrix(0.008173828125000001,0,0,0.008173828125000001,64.924716796875,0)" xlink:href="#as"/><use transform="matrix(0.008173828125000001,0,0,0.008173828125000001,70.401181640625,0)" xlink:href="#aH"/><use transform="matrix(0.008173828125000001,0,0,0.008173828125000001,80.2996875,0)" xlink:href="#am"/><use transform="matrix(0.008173828125000001,0,0,0.008173828125000001,84.35390625000001,0)" xlink:href="#ai"/></g><g id="Q"><use transform="matrix(0.008173828125000001,0,0,0.008173828125000001,0,0)" xlink:href="#an"/><use transform="matrix(0.008173828125000001,0,0,0.008173828125000001,8.835908203125001,0)" xlink:href="#ai"/><use transform="matrix(0.008173828125000001,0,0,0.008173828125000001,18.873369140625,0)" xlink:href="#aR"/><use transform="matrix(0.008173828125000001,0,0,0.008173828125000001,29.123349609375005,0)" xlink:href="#at"/><use transform="matrix(0.008173828125000001,0,0,0.008173828125000001,35.1474609375,0)" xlink:href="#ak"/><use transform="matrix(0.008173828125000001,0,0,0.008173828125000001,44.90701171875,0)" xlink:href="#au"/><use transform="matrix(0.008173828125000001,0,0,0.008173828125000001,52.5413671875,0)" xlink:href="#ai"/><use transform="matrix(0.008173828125000001,0,0,0.008173828125000001,62.578828125,0)" xlink:href="#au"/><use transform="matrix(0.008173828125000001,0,0,0.008173828125000001,70.777177734375,0)" xlink:href="#am"/><use transform="matrix(0.008173828125000001,0,0,0.008173828125000001,74.831396484375,0)" xlink:href="#af"/><use transform="matrix(0.008173828125000001,0,0,0.008173828125000001,78.88561523437501,0)" xlink:href="#aG"/><use transform="matrix(0.008173828125000001,0,0,0.008173828125000001,88.29369140625,0)" xlink:href="#at"/><use transform="matrix(0.008173828125000001,0,0,0.008173828125000001,94.31780273437501,0)" xlink:href="#ai"/></g><path fill="#333" d="M135 0v-1490h468l242 684c30 94 76 293 111 455 34-161 80-360 110-455l238-684h470V0h-307c0-447-3-765 11-1227-122 503-246 788-395 1227H826C676-435 552-717 427-1215c15 453 11 775 11 1215H135" id="bp"/><g id="R"><use transform="matrix(0.008173828125000001,0,0,0.008173828125000001,0,0)" xlink:href="#bp"/><use transform="matrix(0.008173828125000001,0,0,0.008173828125000001,15.595664062500003,0)" xlink:href="#ac"/><use transform="matrix(0.008173828125000001,0,0,0.008173828125000001,25.567734375000004,0)" xlink:href="#az"/><use transform="matrix(0.008173828125000001,0,0,0.008173828125000001,40.84461914062501,0)" xlink:href="#bo"/><use transform="matrix(0.008173828125000001,0,0,0.008173828125000001,51.39703125000001,0)" xlink:href="#ad"/><use transform="matrix(0.008173828125000001,0,0,0.008173828125000001,57.805312500000014,0)" xlink:href="#aE"/></g><g id="S"><use transform="matrix(0.008173828125000001,0,0,0.008173828125000001,0,0)" xlink:href="#al"/><use transform="matrix(0.008173828125000001,0,0,0.008173828125000001,9.154687500000001,0)" xlink:href="#aG"/><use transform="matrix(0.008173828125000001,0,0,0.008173828125000001,18.481025390625,0)" xlink:href="#al"/><use transform="matrix(0.008173828125000001,0,0,0.008173828125000001,27.880927734375,0)" xlink:href="#as"/><use transform="matrix(0.008173828125000001,0,0,0.008173828125000001,33.439130859375,0)" xlink:href="#al"/><use transform="matrix(0.008173828125000001,0,0,0.008173828125000001,42.839033203125,0)" xlink:href="#at"/></g><g id="T"><use transform="matrix(0.008173828125000001,0,0,0.008173828125000001,0,0)" xlink:href="#aF"/><use transform="matrix(0.008173828125000001,0,0,0.008173828125000001,9.726855468750001,0)" xlink:href="#al"/><use transform="matrix(0.008173828125000001,0,0,0.008173828125000001,19.126757812500003,0)" xlink:href="#at"/><use transform="matrix(0.008173828125000001,0,0,0.008173828125000001,25.150869140625,0)" xlink:href="#ap"/><use transform="matrix(0.008173828125000001,0,0,0.008173828125000001,35.417197265625006,0)" xlink:href="#ai"/></g><g id="U"><use transform="matrix(0.008173828125000001,0,0,0.008173828125000001,0,0)" xlink:href="#aT"/><use transform="matrix(0.008173828125000001,0,0,0.008173828125000001,4.699951171875001,0)" xlink:href="#az"/><use transform="matrix(0.008173828125000001,0,0,0.008173828125000001,19.976835937500002,0)" xlink:href="#aD"/><use transform="matrix(0.008173828125000001,0,0,0.008173828125000001,29.695517578125003,0)" xlink:href="#bk"/><use transform="matrix(0.008173828125000001,0,0,0.008173828125000001,40.272451171875005,0)" xlink:href="#ac"/><use transform="matrix(0.008173828125000001,0,0,0.008173828125000001,50.24452148437501,0)" xlink:href="#az"/></g><g id="V"><use transform="matrix(0.008173828125000001,0,0,0.008173828125000001,0,0)" xlink:href="#af"/><use transform="matrix(0.008173828125000001,0,0,0.008173828125000001,4.05421875,0)" xlink:href="#aj"/><use transform="matrix(0.008173828125000001,0,0,0.008173828125000001,18.718066406250003,0)" xlink:href="#al"/><use transform="matrix(0.008173828125000001,0,0,0.008173828125000001,28.117968750000003,0)" xlink:href="#ap"/><use transform="matrix(0.008173828125000001,0,0,0.008173828125000001,38.384296875000004,0)" xlink:href="#ak"/><use transform="matrix(0.008173828125000001,0,0,0.008173828125000001,48.14384765625,0)" xlink:href="#aj"/></g><g id="W"><use transform="matrix(0.008173828125000001,0,0,0.008173828125000001,0,0)" xlink:href="#bi"/><use transform="matrix(0.008173828125000001,0,0,0.008173828125000001,10.135546875000001,0)" xlink:href="#bg"/><use transform="matrix(0.008173828125000001,0,0,0.008173828125000001,14.958105468750002,0)" xlink:href="#bg"/><use transform="matrix(0.008173828125000001,0,0,0.008173828125000001,19.7806640625,0)" xlink:href="#bh"/></g><g id="X"><use transform="matrix(0.008173828125000001,0,0,0.008173828125000001,0,0)" xlink:href="#bn"/><use transform="matrix(0.008173828125000001,0,0,0.008173828125000001,10.961103515625002,0)" xlink:href="#aA"/><use transform="matrix(0.008173828125000001,0,0,0.008173828125000001,15.497578125000002,0)" xlink:href="#aC"/><use transform="matrix(0.008173828125000001,0,0,0.008173828125000001,21.464472656250003,0)" xlink:href="#ac"/></g><g id="Y"><use transform="matrix(0.008173828125000001,0,0,0.008173828125000001,0,0)" xlink:href="#aF"/><use transform="matrix(0.008173828125000001,0,0,0.008173828125000001,9.563378906250001,0)" xlink:href="#ai"/><use transform="matrix(0.008173828125000001,0,0,0.008173828125000001,19.600839843750002,0)" xlink:href="#ah"/><use transform="matrix(0.008173828125000001,0,0,0.008173828125000001,29.491171875000003,0)" xlink:href="#as"/><use transform="matrix(0.008173828125000001,0,0,0.008173828125000001,35.049375000000005,0)" xlink:href="#al"/><use transform="matrix(0.008173828125000001,0,0,0.008173828125000001,44.449277343750005,0)" xlink:href="#as"/><use transform="matrix(0.008173828125000001,0,0,0.008173828125000001,49.762265625000005,0)" xlink:href="#ai"/></g><g id="Z"><use transform="matrix(0.008173828125000001,0,0,0.008173828125000001,0,0)" xlink:href="#am"/><use transform="matrix(0.008173828125000001,0,0,0.008173828125000001,4.05421875,0)" xlink:href="#ai"/><use transform="matrix(0.008173828125000001,0,0,0.008173828125000001,14.091679687500001,0)" xlink:href="#ap"/><use transform="matrix(0.008173828125000001,0,0,0.008173828125000001,24.358007812500002,0)" xlink:href="#ai"/></g></defs></g></svg>